<mxfile host="65bd71144e">
    <diagram id="LwFgf9WUw9VXeG08LobR" name="Page-1">
        <mxGraphModel dx="7303" dy="4227" grid="1" gridSize="10" guides="1" tooltips="1" connect="1" arrows="1" fold="1" page="1" pageScale="1" pageWidth="850" pageHeight="1100" math="0" shadow="0">
            <root>
                <mxCell id="0"/>
                <mxCell id="1" parent="0"/>
                <mxCell id="131" value="" style="rounded=0;whiteSpace=wrap;html=1;fontSize=38;fillColor=none;strokeColor=#000000;shadow=1;" parent="1" vertex="1">
                    <mxGeometry x="-5140" y="360" width="2140" height="1500" as="geometry"/>
                </mxCell>
                <mxCell id="84" value="&lt;p style=&quot;margin: 0px 0px 0px 40px; border: none; padding: 0px; line-height: 100%; font-size: 20px;&quot;&gt;&lt;font style=&quot;font-size: 20px;&quot;&gt;&lt;font style=&quot;font-size: 20px;&quot;&gt;&lt;b&gt;components:&lt;/b&gt;&lt;br style=&quot;font-size: 20px;&quot;&gt;&lt;/font&gt;&lt;font style=&quot;font-size: 20px;&quot;&gt;&lt;span style=&quot;white-space: pre; font-size: 20px;&quot;&gt;&#9;&lt;/span&gt;1) App (Landing Page)&lt;br style=&quot;font-size: 20px;&quot;&gt;&lt;/font&gt;&lt;font style=&quot;font-size: 20px;&quot;&gt;&lt;span style=&quot;font-size: 20px;&quot;&gt;&#9;&lt;/span&gt;&lt;span style=&quot;font-size: 20px;&quot;&gt;&#9;&lt;/span&gt;&lt;span style=&quot;white-space: pre; font-size: 20px;&quot;&gt;&#9;&lt;/span&gt;&lt;span style=&quot;white-space: pre; font-size: 20px;&quot;&gt;&#9;&lt;/span&gt;State:&lt;br style=&quot;font-size: 20px;&quot;&gt;&lt;/font&gt;&lt;font style=&quot;font-size: 20px;&quot;&gt;&lt;strike style=&quot;font-size: 20px;&quot;&gt;&lt;span style=&quot;font-size: 20px;&quot;&gt;&#9;&lt;/span&gt;&lt;span style=&quot;font-size: 20px;&quot;&gt;&#9;&lt;/span&gt;&lt;span style=&quot;font-size: 20px;&quot;&gt;&#9;&lt;/span&gt;&lt;span style=&quot;white-space: pre; font-size: 20px;&quot;&gt;&#9;&lt;/span&gt;&lt;span style=&quot;white-space: pre; font-size: 20px;&quot;&gt;&#9;&lt;/span&gt;&lt;span style=&quot;white-space: pre; font-size: 20px;&quot;&gt;&#9;&lt;/span&gt;currentTeam :&amp;nbsp;&lt;/strike&gt;&lt;/font&gt;&lt;span style=&quot;background-color: initial; font-size: 20px;&quot;&gt;&lt;font style=&quot;font-size: 20px;&quot;&gt;&lt;strike style=&quot;font-size: 20px;&quot;&gt;default team 1     (this sets which team's information is&amp;nbsp;&lt;/strike&gt;&lt;/font&gt;&lt;/span&gt;&lt;span style=&quot;background-color: initial; font-size: 20px;&quot;&gt;&lt;font style=&quot;font-size: 20px;&quot;&gt;&lt;strike style=&quot;font-size: 20px;&quot;&gt;currently being affected&lt;/strike&gt;)&lt;/font&gt;&lt;/span&gt;&lt;/font&gt;&lt;/p&gt;&lt;p style=&quot;margin: 0px 0px 0px 40px; border: none; padding: 0px; line-height: 100%; font-size: 20px;&quot;&gt;&lt;span style=&quot;font-size: 20px;&quot;&gt;&lt;font style=&quot;font-size: 20px;&quot;&gt;&lt;span style=&quot;font-size: 20px;&quot;&gt;&#9;&lt;/span&gt;&lt;span style=&quot;font-size: 20px;&quot;&gt;&#9;&lt;/span&gt;&lt;span style=&quot;font-size: 20px;&quot;&gt;&#9;&lt;/span&gt;&lt;span style=&quot;white-space: pre; font-size: 20px;&quot;&gt;&#9;&lt;/span&gt;&lt;span style=&quot;white-space: pre; font-size: 20px;&quot;&gt;&#9;&lt;/span&gt;&lt;span style=&quot;white-space: pre; font-size: 20px;&quot;&gt;&#9;&lt;/span&gt;questionArray&lt;/font&gt;&lt;/span&gt;&lt;/p&gt;&lt;p style=&quot;margin: 0px 0px 0px 40px; border: none; padding: 0px; line-height: 100%; font-size: 20px;&quot;&gt;&lt;span style=&quot;font-size: 20px;&quot;&gt;&lt;font style=&quot;font-size: 20px;&quot;&gt;&lt;span style=&quot;white-space: pre; font-size: 20px;&quot;&gt;&#9;&lt;span style=&quot;white-space: pre; font-size: 20px;&quot;&gt;&#9;&lt;/span&gt;&lt;span style=&quot;white-space: pre; font-size: 20px;&quot;&gt;&#9;&lt;/span&gt;&lt;span style=&quot;white-space: pre; font-size: 20px;&quot;&gt;&#9;&lt;/span&gt;&lt;/span&gt;sets destructable question array equal to fetched array of questions&lt;br style=&quot;font-size: 20px;&quot;&gt;&lt;/font&gt;&lt;/span&gt;&lt;/p&gt;&lt;p style=&quot;margin: 0px 0px 0px 40px; border: none; padding: 0px; line-height: 100%; font-size: 20px;&quot;&gt;&lt;span style=&quot;font-size: 20px;&quot;&gt;&lt;font style=&quot;font-size: 20px;&quot;&gt;&lt;span style=&quot;white-space: pre; font-size: 20px;&quot;&gt;&#9;&lt;/span&gt;&lt;span style=&quot;white-space: pre; font-size: 20px;&quot;&gt;&#9;&lt;/span&gt;&lt;span style=&quot;white-space: pre; font-size: 20px;&quot;&gt;&#9;&lt;/span&gt;highScoreArray&amp;nbsp;&lt;/font&gt;&lt;/span&gt;&lt;/p&gt;&lt;p style=&quot;margin: 0px 0px 0px 40px; border: none; padding: 0px; line-height: 100%; font-size: 20px;&quot;&gt;&lt;span style=&quot;font-size: 20px;&quot;&gt;&lt;font style=&quot;font-size: 20px;&quot;&gt;&lt;span style=&quot;white-space: pre; font-size: 20px;&quot;&gt;&#9;&lt;/span&gt;&lt;span style=&quot;white-space: pre; font-size: 20px;&quot;&gt;&#9;&lt;/span&gt;&lt;span style=&quot;white-space: pre; font-size: 20px;&quot;&gt;&#9;&lt;/span&gt;&lt;span style=&quot;white-space: pre; font-size: 20px;&quot;&gt;&#9;&lt;/span&gt;default: hardcoded array from assets&lt;/font&gt;&lt;/span&gt;&lt;/p&gt;&lt;p style=&quot;margin: 0px 0px 0px 40px; border: none; padding: 0px; line-height: 100%; font-size: 20px;&quot;&gt;&lt;font style=&quot;font-size: 20px;&quot;&gt;&lt;span style=&quot;font-size: 20px;&quot;&gt;&lt;span style=&quot;font-size: 20px;&quot;&gt;&lt;font style=&quot;font-size: 20px;&quot;&gt;&lt;span style=&quot;font-size: 20px;&quot;&gt;&#9;&lt;/span&gt;&lt;span style=&quot;font-size: 20px;&quot;&gt;&#9;&lt;/span&gt;&lt;span style=&quot;font-size: 20px;&quot;&gt;&#9;&lt;/span&gt;&lt;span style=&quot;white-space: pre; font-size: 20px;&quot;&gt;&#9;&lt;/span&gt;&lt;span style=&quot;white-space: pre; font-size: 20px;&quot;&gt;&#9;&lt;/span&gt;&lt;span style=&quot;white-space: pre; font-size: 20px;&quot;&gt;&#9;&lt;/span&gt;teamData&lt;br style=&quot;font-size: 20px;&quot;&gt;&lt;/font&gt;&lt;/span&gt;&lt;/span&gt;&lt;span style=&quot;font-size: 20px;&quot;&gt;&lt;span style=&quot;font-size: 20px;&quot;&gt;&lt;font style=&quot;font-size: 20px;&quot;&gt;&lt;span style=&quot;font-size: 20px;&quot;&gt;&#9;&lt;/span&gt;&lt;span style=&quot;font-size: 20px;&quot;&gt;&#9;&lt;/span&gt;&lt;span style=&quot;font-size: 20px;&quot;&gt;&#9;&lt;/span&gt;&lt;span style=&quot;font-size: 20px;&quot;&gt;&#9;&lt;/span&gt;&lt;span style=&quot;white-space: pre; font-size: 20px;&quot;&gt;&#9;&lt;/span&gt;&lt;span style=&quot;white-space: pre; font-size: 20px;&quot;&gt;&#9;&lt;/span&gt;&lt;span style=&quot;white-space: pre; font-size: 20px;&quot;&gt;&#9;&lt;/span&gt;&lt;span style=&quot;white-space: pre; font-size: 20px;&quot;&gt;&#9;&lt;/span&gt;sets teamData array from teamForm&lt;/font&gt;&lt;/span&gt;&lt;/span&gt;&lt;/font&gt;&lt;/p&gt;&lt;p style=&quot;margin: 0px 0px 0px 40px; border: none; padding: 0px; line-height: 100%; font-size: 20px;&quot;&gt;&lt;font style=&quot;font-size: 20px;&quot;&gt;&lt;span style=&quot;font-size: 20px;&quot;&gt;&lt;span style=&quot;font-size: 20px;&quot;&gt;&lt;font style=&quot;font-size: 20px;&quot;&gt;&lt;span style=&quot;font-size: 20px;&quot;&gt;&#9;&lt;/span&gt;&lt;span style=&quot;font-size: 20px;&quot;&gt;&#9;&lt;/span&gt;&lt;span style=&quot;font-size: 20px;&quot;&gt;&#9;&lt;/span&gt;&lt;span style=&quot;font-size: 20px;&quot;&gt;&#9;&lt;/span&gt;&lt;span style=&quot;white-space: pre; font-size: 20px;&quot;&gt;&#9;&lt;/span&gt;&lt;span style=&quot;white-space: pre; font-size: 20px;&quot;&gt;&#9;&lt;/span&gt;&lt;span style=&quot;white-space: pre; font-size: 20px;&quot;&gt;&#9;&lt;/span&gt;&lt;span style=&quot;white-space: pre; font-size: 20px;&quot;&gt;&#9;&lt;/span&gt;teamData = [{name:&quot;null&quot;, score:0, number:1},&amp;nbsp;&lt;/font&gt;&lt;/span&gt;&lt;/span&gt;{name:&quot;null&quot;, score:0, number:2}]&lt;span style=&quot;font-size: 20px;&quot;&gt;&lt;span style=&quot;font-size: 20px;&quot;&gt;&lt;font style=&quot;font-size: 20px;&quot;&gt;&lt;br style=&quot;font-size: 20px;&quot;&gt;&lt;/font&gt;&lt;/span&gt;&lt;/span&gt;&lt;span style=&quot;font-size: 20px;&quot;&gt;&lt;span style=&quot;font-size: 20px;&quot;&gt;&lt;strike style=&quot;font-size: 20px;&quot;&gt;&lt;font style=&quot;font-size: 20px;&quot;&gt;&lt;span style=&quot;white-space: pre; font-size: 20px;&quot;&gt;&#9;&lt;/span&gt;&lt;span style=&quot;white-space: pre; font-size: 20px;&quot;&gt;&#9;&lt;/span&gt;&lt;span style=&quot;white-space: pre; font-size: 20px;&quot;&gt;&#9;&lt;/span&gt;answerresponse&lt;br style=&quot;font-size: 20px;&quot;&gt;&lt;/font&gt;&lt;/strike&gt;&lt;/span&gt;&lt;/span&gt;&lt;span style=&quot;font-size: 20px;&quot;&gt;&lt;span style=&quot;font-size: 20px;&quot;&gt;&lt;strike style=&quot;font-size: 20px;&quot;&gt;&lt;font style=&quot;font-size: 20px;&quot;&gt;&lt;span style=&quot;font-size: 20px;&quot;&gt;&#9;&lt;/span&gt;&lt;span style=&quot;font-size: 20px;&quot;&gt;&#9;&lt;/span&gt;&lt;span style=&quot;font-size: 20px;&quot;&gt;&#9;&lt;/span&gt;&lt;span style=&quot;font-size: 20px;&quot;&gt;&#9;&lt;/span&gt;&lt;span style=&quot;white-space: pre; font-size: 20px;&quot;&gt;&#9;&lt;/span&gt;&lt;span style=&quot;white-space: pre; font-size: 20px;&quot;&gt;&#9;&lt;/span&gt;&lt;span style=&quot;white-space: pre; font-size: 20px;&quot;&gt;&#9;&lt;/span&gt;&lt;span style=&quot;white-space: pre; font-size: 20px;&quot;&gt;&#9;&lt;/span&gt;sets answer to read&amp;nbsp;&lt;/font&gt;&lt;/strike&gt;&lt;/span&gt;&lt;/span&gt;&lt;span style=&quot;font-size: 20px;&quot;&gt;&lt;span style=&quot;font-size: 20px;&quot;&gt;&lt;strike style=&quot;font-size: 20px;&quot;&gt;&lt;font style=&quot;font-size: 20px;&quot;&gt;patch to question array&lt;/font&gt;&lt;/strike&gt;&lt;/span&gt;&lt;/span&gt;&lt;/font&gt;&lt;/p&gt;&lt;p style=&quot;margin: 0px 0px 0px 40px; border: none; padding: 0px; line-height: 100%; font-size: 20px;&quot;&gt;&lt;font style=&quot;font-size: 20px;&quot;&gt;&lt;span style=&quot;font-size: 20px;&quot;&gt;&lt;span style=&quot;font-size: 20px;&quot;&gt;&lt;strike style=&quot;font-size: 20px;&quot;&gt;&lt;font style=&quot;font-size: 20px;&quot;&gt;&lt;span style=&quot;white-space: pre;&quot;&gt;&#9;&lt;/span&gt;&lt;span style=&quot;white-space: pre;&quot;&gt;&#9;&lt;/span&gt;&lt;span style=&quot;white-space: pre;&quot;&gt;&#9;&lt;/span&gt;stretch: more endpoints to backend to hold team object including score&lt;br style=&quot;font-size: 20px;&quot;&gt;&lt;/font&gt;&lt;/strike&gt;&lt;/span&gt;&lt;/span&gt;&lt;span style=&quot;font-size: 20px;&quot;&gt;&lt;span style=&quot;font-size: 20px;&quot;&gt;&lt;font style=&quot;font-size: 20px;&quot;&gt;&lt;span style=&quot;font-size: 20px;&quot;&gt;&#9;&lt;/span&gt;&lt;span style=&quot;font-size: 20px;&quot;&gt;&#9;&lt;/span&gt;&lt;span style=&quot;white-space: pre; font-size: 20px;&quot;&gt;&#9;&lt;/span&gt;&lt;span style=&quot;white-space: pre; font-size: 20px;&quot;&gt;&#9;&lt;/span&gt;Fetches:&lt;br style=&quot;font-size: 20px;&quot;&gt;&lt;/font&gt;&lt;/span&gt;&lt;/span&gt;&lt;span style=&quot;font-size: 20px;&quot;&gt;&lt;span style=&quot;font-size: 20px;&quot;&gt;&lt;font style=&quot;font-size: 20px;&quot;&gt;&lt;span style=&quot;font-size: 20px;&quot;&gt;&#9;&lt;/span&gt;&lt;span style=&quot;font-size: 20px;&quot;&gt;&#9;&lt;/span&gt;&lt;span style=&quot;font-size: 20px;&quot;&gt;&#9;&lt;/span&gt;&lt;span style=&quot;white-space: pre; font-size: 20px;&quot;&gt;&#9;&lt;/span&gt;&lt;span style=&quot;white-space: pre; font-size: 20px;&quot;&gt;&#9;&lt;/span&gt;&lt;span style=&quot;white-space: pre; font-size: 20px;&quot;&gt;&#9;&lt;/span&gt;loads question array&lt;/font&gt;&lt;/span&gt;&lt;/span&gt;&lt;/font&gt;&lt;/p&gt;&lt;blockquote style=&quot;margin: 0px 0px 0px 40px; border: none; padding: 0px; line-height: 100%; font-size: 20px;&quot;&gt;&lt;p style=&quot;margin: 0px 0px 0px 40px; border: none; padding: 0px; line-height: 100%; font-size: 20px;&quot;&gt;&lt;span style=&quot;font-size: 20px;&quot;&gt;&lt;span style=&quot;font-size: 20px;&quot;&gt;&lt;font style=&quot;font-size: 20px;&quot;&gt;&lt;span style=&quot;font-size: 20px;&quot;&gt;&lt;span style=&quot;white-space: pre; font-size: 20px;&quot;&gt;&#9;&lt;/span&gt;&lt;span style=&quot;white-space: pre; font-size: 20px;&quot;&gt;&#9;&lt;/span&gt;&lt;span style=&quot;white-space: pre; font-size: 20px;&quot;&gt;&#9;&lt;/span&gt;r&lt;/span&gt;esponse = [{&lt;/font&gt;&lt;/span&gt;&lt;/span&gt;&lt;/p&gt;&lt;p style=&quot;margin: 0px 0px 0px 40px; border: none; padding: 0px; line-height: 100%; font-size: 20px;&quot;&gt;&lt;font style=&quot;font-size: 20px;&quot;&gt;&lt;span style=&quot;white-space: pre; font-size: 20px;&quot;&gt;&#9;&lt;/span&gt;&lt;span style=&quot;white-space: pre; font-size: 20px;&quot;&gt;&#9;&lt;/span&gt;&lt;span style=&quot;white-space: pre; font-size: 20px;&quot;&gt;&#9;&lt;/span&gt;&lt;span style=&quot;white-space: pre; font-size: 20px;&quot;&gt;&#9;&lt;/span&gt;number: &quot;int&quot;&lt;/font&gt;&lt;/p&gt;&lt;p style=&quot;margin: 0px 0px 0px 40px; border: none; padding: 0px; line-height: 100%; font-size: 20px;&quot;&gt;&lt;span style=&quot;font-size: 20px;&quot;&gt;&lt;span style=&quot;font-size: 20px;&quot;&gt;&lt;font style=&quot;font-size: 20px;&quot;&gt;&lt;span style=&quot;white-space: pre; font-size: 20px;&quot;&gt;&#9;&lt;/span&gt;&lt;span style=&quot;white-space: pre; font-size: 20px;&quot;&gt;&#9;&lt;/span&gt;&lt;span style=&quot;white-space: pre; font-size: 20px;&quot;&gt;&#9;&lt;/span&gt;&lt;span style=&quot;white-space: pre; font-size: 20px;&quot;&gt;&#9;&lt;/span&gt;question: &quot;text&quot;,\&lt;/font&gt;&lt;/span&gt;&lt;/span&gt;&lt;/p&gt;&lt;p style=&quot;margin: 0px 0px 0px 40px; border: none; padding: 0px; line-height: 100%; font-size: 20px;&quot;&gt;&lt;font style=&quot;font-size: 20px;&quot;&gt;&lt;span style=&quot;white-space: pre; font-size: 20px;&quot;&gt;&#9;&lt;/span&gt;&lt;span style=&quot;white-space: pre; font-size: 20px;&quot;&gt;&#9;&lt;/span&gt;&lt;span style=&quot;white-space: pre; font-size: 20px;&quot;&gt;&#9;&lt;/span&gt;&lt;span style=&quot;white-space: pre; font-size: 20px;&quot;&gt;&#9;&lt;/span&gt;answerA: &quot;text&quot;,&lt;/font&gt;&lt;/p&gt;&lt;p style=&quot;margin: 0px 0px 0px 40px; border: none; padding: 0px; line-height: 100%; font-size: 20px;&quot;&gt;&lt;font style=&quot;font-size: 20px;&quot;&gt;&lt;span style=&quot;white-space: pre; font-size: 20px;&quot;&gt;&#9;&lt;/span&gt;&lt;span style=&quot;white-space: pre; font-size: 20px;&quot;&gt;&#9;&lt;/span&gt;&lt;span style=&quot;white-space: pre; font-size: 20px;&quot;&gt;&#9;&lt;/span&gt;&lt;span style=&quot;white-space: pre; font-size: 20px;&quot;&gt;&#9;&lt;/span&gt;answerB: &quot;text&quot;,&lt;/font&gt;&lt;/p&gt;&lt;p style=&quot;margin: 0px 0px 0px 40px; border: none; padding: 0px; line-height: 100%; font-size: 20px;&quot;&gt;&lt;font style=&quot;font-size: 20px;&quot;&gt;&lt;span style=&quot;white-space: pre; font-size: 20px;&quot;&gt;&#9;&lt;/span&gt;&lt;span style=&quot;white-space: pre; font-size: 20px;&quot;&gt;&#9;&lt;/span&gt;&lt;span style=&quot;white-space: pre; font-size: 20px;&quot;&gt;&#9;&lt;/span&gt;&lt;span style=&quot;white-space: pre; font-size: 20px;&quot;&gt;&#9;&lt;/span&gt;answerC: &quot;text&quot;,&lt;/font&gt;&lt;/p&gt;&lt;p style=&quot;margin: 0px 0px 0px 40px; border: none; padding: 0px; line-height: 100%; font-size: 20px;&quot;&gt;&lt;font style=&quot;font-size: 20px;&quot;&gt;&lt;span style=&quot;white-space: pre; font-size: 20px;&quot;&gt;&#9;&lt;/span&gt;&lt;span style=&quot;white-space: pre; font-size: 20px;&quot;&gt;&#9;&lt;/span&gt;&lt;span style=&quot;white-space: pre; font-size: 20px;&quot;&gt;&#9;&lt;/span&gt;&lt;span style=&quot;white-space: pre; font-size: 20px;&quot;&gt;&#9;&lt;/span&gt;answerD: &quot;text&quot;,&lt;/font&gt;&lt;/p&gt;&lt;p style=&quot;margin: 0px 0px 0px 40px; border: none; padding: 0px; line-height: 100%; font-size: 20px;&quot;&gt;&lt;font style=&quot;font-size: 20px;&quot;&gt;&lt;span style=&quot;white-space: pre; font-size: 20px;&quot;&gt;&#9;&lt;/span&gt;&lt;span style=&quot;white-space: pre; font-size: 20px;&quot;&gt;&#9;&lt;/span&gt;&lt;span style=&quot;white-space: pre; font-size: 20px;&quot;&gt;&#9;&lt;/span&gt;&lt;span style=&quot;white-space: pre; font-size: 20px;&quot;&gt;&#9;&lt;/span&gt;answer: &quot;text&quot;&lt;/font&gt;&lt;/p&gt;&lt;p style=&quot;margin: 0px 0px 0px 40px; border: none; padding: 0px; line-height: 100%; font-size: 20px;&quot;&gt;&lt;span style=&quot;font-size: 20px;&quot;&gt;&lt;span style=&quot;font-size: 20px;&quot;&gt;&lt;span style=&quot;font-size: 20px;&quot;&gt;&lt;font style=&quot;font-size: 20px;&quot;&gt;&lt;span style=&quot;white-space: pre; font-size: 20px;&quot;&gt;&#9;&lt;/span&gt;&lt;span style=&quot;white-space: pre; font-size: 20px;&quot;&gt;&#9;&lt;/span&gt;&lt;span style=&quot;white-space: pre; font-size: 20px;&quot;&gt;&#9;&lt;/span&gt;}]&lt;/font&gt;&lt;/span&gt;&lt;/span&gt;&lt;/span&gt;&lt;/p&gt;&lt;/blockquote&gt;&lt;p style=&quot;margin: 0px 0px 0px 40px; border: none; padding: 0px; line-height: 100%; font-size: 20px;&quot;&gt;&lt;font style=&quot;font-size: 20px;&quot;&gt;&lt;span style=&quot;font-size: 20px;&quot;&gt;&lt;span style=&quot;font-size: 20px;&quot;&gt;&lt;font style=&quot;font-size: 20px;&quot;&gt;&lt;span style=&quot;font-size: 20px;&quot;&gt;&#9;&lt;/span&gt;&lt;span style=&quot;font-size: 20px;&quot;&gt;&#9;&lt;/span&gt;&lt;span style=&quot;font-size: 20px;&quot;&gt;&#9;&lt;/span&gt;&lt;span style=&quot;font-size: 20px;&quot;&gt;&#9;&lt;/span&gt;&lt;/font&gt;&lt;/span&gt;&lt;/span&gt;&lt;span style=&quot;background-color: initial; font-size: 20px;&quot;&gt;&#9;&lt;/span&gt;&lt;/font&gt;&lt;/p&gt;&lt;p style=&quot;margin: 0px 0px 0px 40px; border: none; padding: 0px; line-height: 100%; font-size: 20px;&quot;&gt;&lt;font style=&quot;font-size: 20px;&quot;&gt;&lt;span style=&quot;font-size: 20px;&quot;&gt;&lt;span style=&quot;font-size: 20px;&quot;&gt;&lt;font style=&quot;font-size: 20px;&quot;&gt;&lt;span style=&quot;font-size: 20px;&quot;&gt;&#9;&lt;/span&gt;&lt;span style=&quot;font-size: 20px;&quot;&gt;&#9;&lt;/span&gt;&lt;span style=&quot;white-space: pre; font-size: 20px;&quot;&gt;&#9;&lt;/span&gt;&lt;span style=&quot;white-space: pre; font-size: 20px;&quot;&gt;&#9;&lt;/span&gt;Handlers:&lt;br style=&quot;font-size: 20px;&quot;&gt;&lt;/font&gt;&lt;/span&gt;&lt;/span&gt;&lt;span style=&quot;font-size: 20px;&quot;&gt;&lt;span style=&quot;font-size: 20px;&quot;&gt;&lt;font style=&quot;font-size: 20px;&quot;&gt;&lt;span style=&quot;font-size: 20px;&quot;&gt;&#9;&lt;/span&gt;&lt;span style=&quot;font-size: 20px;&quot;&gt;&#9;&lt;/span&gt;&lt;span style=&quot;font-size: 20px;&quot;&gt;&#9;&lt;/span&gt;&lt;strike style=&quot;font-size: 20px;&quot;&gt;&lt;span style=&quot;white-space: pre; font-size: 20px;&quot;&gt;&#9;&lt;/span&gt;&lt;span style=&quot;white-space: pre; font-size: 20px;&quot;&gt;&#9;&lt;/span&gt;&lt;span style=&quot;white-space: pre; font-size: 20px;&quot;&gt;&#9;&lt;/span&gt;scoreChangeHandler&lt;/strike&gt;&lt;/font&gt;&lt;/span&gt;&lt;/span&gt;&lt;/font&gt;&lt;/p&gt;&lt;p style=&quot;margin: 0px 0px 0px 40px; border: none; padding: 0px; line-height: 100%; font-size: 20px;&quot;&gt;&lt;font style=&quot;font-size: 20px;&quot;&gt;&lt;span style=&quot;font-size: 20px;&quot;&gt;&lt;span style=&quot;font-size: 20px;&quot;&gt;&lt;font style=&quot;font-size: 20px;&quot;&gt;&lt;strike style=&quot;font-size: 20px;&quot;&gt;&lt;br style=&quot;font-size: 20px;&quot;&gt;&lt;/strike&gt;&lt;/font&gt;&lt;/span&gt;&lt;/span&gt;&lt;span style=&quot;font-size: 20px;&quot;&gt;&lt;font style=&quot;font-size: 20px;&quot;&gt;&lt;span style=&quot;font-size: 20px;&quot;&gt;&#9;&lt;/span&gt;&lt;span style=&quot;font-size: 20px;&quot;&gt;&#9;&lt;/span&gt;&lt;span style=&quot;font-size: 20px;&quot;&gt;&#9;&lt;/span&gt;&lt;span style=&quot;white-space: pre; font-size: 20px;&quot;&gt;&#9;&lt;/span&gt;&lt;span style=&quot;white-space: pre; font-size: 20px;&quot;&gt;&#9;&lt;/span&gt;&lt;span style=&quot;white-space: pre; font-size: 20px;&quot;&gt;&#9;&lt;/span&gt;newTeamDataHandler&lt;/font&gt;&lt;/span&gt;&lt;/font&gt;&lt;/p&gt;&lt;p style=&quot;margin: 0px 0px 0px 40px; border: none; padding: 0px; line-height: 100%; font-size: 20px;&quot;&gt;&lt;font style=&quot;font-size: 20px;&quot;&gt;&lt;span style=&quot;font-size: 20px;&quot;&gt;&lt;font style=&quot;font-size: 20px;&quot;&gt;&lt;br style=&quot;font-size: 20px;&quot;&gt;&lt;/font&gt;&lt;/span&gt;&lt;span style=&quot;font-size: 20px;&quot;&gt;&lt;span style=&quot;font-size: 20px;&quot;&gt;&lt;font style=&quot;font-size: 20px;&quot;&gt;&lt;span style=&quot;font-size: 20px;&quot;&gt;&#9;&lt;/span&gt;&lt;span style=&quot;font-size: 20px;&quot;&gt;&#9;&lt;/span&gt;&lt;span style=&quot;font-size: 20px;&quot;&gt;&#9;&lt;/span&gt;&lt;span style=&quot;white-space: pre; font-size: 20px;&quot;&gt;&#9;&lt;/span&gt;&lt;span style=&quot;white-space: pre; font-size: 20px;&quot;&gt;&#9;&lt;/span&gt;&lt;span style=&quot;white-space: pre; font-size: 20px;&quot;&gt;&#9;&lt;/span&gt;answeredQuestionHandler&lt;br style=&quot;font-size: 20px;&quot;&gt;&lt;/font&gt;&lt;/span&gt;&lt;/span&gt;&lt;span style=&quot;font-size: 20px;&quot;&gt;&lt;span style=&quot;font-size: 20px;&quot;&gt;&lt;font style=&quot;font-size: 20px;&quot;&gt;&lt;span style=&quot;font-size: 20px;&quot;&gt;&#9;&lt;/span&gt;&lt;span style=&quot;font-size: 20px;&quot;&gt;&#9;&lt;/span&gt;&lt;span style=&quot;font-size: 20px;&quot;&gt;&#9;&lt;/span&gt;&lt;span style=&quot;font-size: 20px;&quot;&gt;&#9;&lt;/span&gt;&lt;span style=&quot;white-space: pre; font-size: 20px;&quot;&gt;&#9;&lt;/span&gt;&lt;span style=&quot;white-space: pre; font-size: 20px;&quot;&gt;&#9;&lt;/span&gt;&lt;span style=&quot;white-space: pre; font-size: 20px;&quot;&gt;&#9;&lt;/span&gt;&lt;span style=&quot;white-space: pre; font-size: 20px;&quot;&gt;&#9;&lt;/span&gt;filters questionArray removing answeredQuestion&lt;br style=&quot;font-size: 20px;&quot;&gt;&lt;/font&gt;&lt;/span&gt;&lt;/span&gt;&lt;span style=&quot;font-size: 20px;&quot;&gt;&lt;span style=&quot;font-size: 20px;&quot;&gt;&lt;font style=&quot;font-size: 20px;&quot;&gt;&lt;span style=&quot;font-size: 20px;&quot;&gt;&#9;&lt;/span&gt;&lt;span style=&quot;font-size: 20px;&quot;&gt;&#9;&lt;/span&gt;&lt;span style=&quot;font-size: 20px;&quot;&gt;&#9;&lt;/span&gt;&lt;span style=&quot;font-size: 20px;&quot;&gt;&#9;&lt;/span&gt;&lt;span style=&quot;white-space: pre; font-size: 20px;&quot;&gt;&#9;&lt;/span&gt;&lt;span style=&quot;white-space: pre; font-size: 20px;&quot;&gt;&#9;&lt;/span&gt;&lt;span style=&quot;white-space: pre; font-size: 20px;&quot;&gt;&#9;&lt;/span&gt;&lt;span style=&quot;white-space: pre; font-size: 20px;&quot;&gt;&#9;&lt;/span&gt;changeScore on teamData conditionally&lt;br style=&quot;font-size: 20px;&quot;&gt;&lt;/font&gt;&lt;/span&gt;&lt;/span&gt;&lt;span style=&quot;font-size: 20px;&quot;&gt;&lt;span style=&quot;font-size: 20px;&quot;&gt;&lt;font style=&quot;font-size: 20px;&quot;&gt;&lt;span style=&quot;font-size: 20px;&quot;&gt;&#9;&lt;/span&gt;&lt;span style=&quot;font-size: 20px;&quot;&gt;&#9;&lt;/span&gt;&lt;span style=&quot;font-size: 20px;&quot;&gt;&#9;&lt;/span&gt;&lt;span style=&quot;font-size: 20px;&quot;&gt;&#9;&lt;/span&gt;&lt;span style=&quot;white-space: pre; font-size: 20px;&quot;&gt;&#9;&lt;/span&gt;&lt;span style=&quot;white-space: pre; font-size: 20px;&quot;&gt;&#9;&lt;/span&gt;&lt;span style=&quot;white-space: pre; font-size: 20px;&quot;&gt;&#9;&lt;/span&gt;&lt;span style=&quot;white-space: pre; font-size: 20px;&quot;&gt;&#9;&lt;/span&gt;setWinStatus&lt;/font&gt;&lt;/span&gt;&lt;/span&gt;&lt;/font&gt;&lt;/p&gt;&lt;p style=&quot;margin: 0px 0px 0px 40px; border: none; padding: 0px; line-height: 100%; font-size: 20px;&quot;&gt;&lt;font style=&quot;font-size: 20px;&quot;&gt;&lt;span style=&quot;font-size: 20px;&quot;&gt;&lt;span style=&quot;font-size: 20px;&quot;&gt;&lt;font style=&quot;font-size: 20px;&quot;&gt;&lt;span style=&quot;font-size: 20px;&quot;&gt;&#9;&lt;/span&gt;&lt;span style=&quot;font-size: 20px;&quot;&gt;&#9;&lt;/span&gt;&lt;span style=&quot;font-size: 20px;&quot;&gt;&#9;&lt;/span&gt;&lt;span style=&quot;font-size: 20px;&quot;&gt;&#9;&lt;/span&gt;&lt;span style=&quot;white-space: pre; font-size: 20px;&quot;&gt;&#9;&lt;/span&gt;&lt;span style=&quot;white-space: pre; font-size: 20px;&quot;&gt;&#9;&lt;/span&gt;&lt;span style=&quot;white-space: pre; font-size: 20px;&quot;&gt;&#9;&lt;/span&gt;&lt;span style=&quot;white-space: pre; font-size: 20px;&quot;&gt;&#9;&lt;/span&gt;setCurrentTeam&lt;br style=&quot;font-size: 20px;&quot;&gt;&lt;/font&gt;&lt;/span&gt;&lt;/span&gt;&lt;span style=&quot;font-size: 20px;&quot;&gt;&lt;span style=&quot;font-size: 20px;&quot;&gt;&lt;font style=&quot;font-size: 20px;&quot;&gt;&lt;span style=&quot;font-size: 20px;&quot;&gt;&#9;&lt;/span&gt;&lt;span style=&quot;font-size: 20px;&quot;&gt;&#9;&lt;/span&gt;&lt;span style=&quot;font-size: 20px;&quot;&gt;&#9;&lt;/span&gt;&lt;span style=&quot;font-size: 20px;&quot;&gt;&#9;&lt;/span&gt;&lt;span style=&quot;white-space: pre; font-size: 20px;&quot;&gt;&#9;&lt;/span&gt;&lt;span style=&quot;white-space: pre; font-size: 20px;&quot;&gt;&#9;&lt;/span&gt;&lt;span style=&quot;white-space: pre; font-size: 20px;&quot;&gt;&#9;&lt;/span&gt;&lt;span style=&quot;white-space: pre; font-size: 20px;&quot;&gt;&#9;&lt;/span&gt;return appropriate ResponsePage&lt;/font&gt;&lt;/span&gt;&lt;/span&gt;&lt;/font&gt;&lt;/p&gt;&lt;p style=&quot;margin: 0px 0px 0px 40px; border: none; padding: 0px; line-height: 100%; font-size: 20px;&quot;&gt;&lt;font style=&quot;font-size: 20px;&quot;&gt;&lt;font style=&quot;font-size: 20px;&quot;&gt;&lt;font style=&quot;font-size: 20px;&quot;&gt;&lt;span style=&quot;font-size: 20px;&quot;&gt;&lt;span style=&quot;font-size: 20px;&quot;&gt;&lt;br style=&quot;font-size: 20px;&quot;&gt;&lt;/span&gt;&lt;/span&gt;&lt;/font&gt;&lt;/font&gt;&lt;font style=&quot;font-size: 20px;&quot;&gt;&lt;font style=&quot;font-size: 20px;&quot;&gt;&lt;span style=&quot;font-size: 20px;&quot;&gt;&lt;span style=&quot;font-size: 20px;&quot;&gt;&lt;span style=&quot;font-size: 20px;&quot;&gt;&#9;&lt;/span&gt;&lt;span style=&quot;font-size: 20px;&quot;&gt;&#9;&lt;/span&gt;&lt;span style=&quot;font-size: 20px;&quot;&gt;&#9;&lt;/span&gt;&lt;span style=&quot;white-space: pre; font-size: 20px;&quot;&gt;&#9;&lt;/span&gt;&lt;span style=&quot;white-space: pre; font-size: 20px;&quot;&gt;&#9;&lt;/span&gt;&lt;span style=&quot;white-space: pre; font-size: 20px;&quot;&gt;&#9;&lt;/span&gt;newGameHandler&lt;/span&gt;&lt;/span&gt;&lt;/font&gt;&lt;/font&gt;&lt;/font&gt;&lt;/p&gt;&lt;p style=&quot;margin: 0px 0px 0px 40px; border: none; padding: 0px; line-height: 100%; font-size: 20px;&quot;&gt;&lt;font style=&quot;font-size: 20px;&quot;&gt;&lt;span style=&quot;font-size: 20px;&quot;&gt;&lt;span style=&quot;font-size: 20px;&quot;&gt;&lt;span style=&quot;font-size: 20px;&quot;&gt;&#9;&lt;/span&gt;&lt;span style=&quot;font-size: 20px;&quot;&gt;&#9;&lt;/span&gt;&lt;span style=&quot;font-size: 20px;&quot;&gt;&#9;&lt;/span&gt;&lt;span style=&quot;font-size: 20px;&quot;&gt;&#9;&lt;/span&gt;&lt;span style=&quot;white-space: pre; font-size: 20px;&quot;&gt;&#9;&lt;/span&gt;&lt;span style=&quot;white-space: pre; font-size: 20px;&quot;&gt;&#9;&lt;/span&gt;&lt;span style=&quot;white-space: pre; font-size: 20px;&quot;&gt;&#9;&lt;/span&gt;&lt;span style=&quot;white-space: pre; font-size: 20px;&quot;&gt;&#9;&lt;/span&gt;Reset all to defaults&lt;br style=&quot;font-size: 20px;&quot;&gt;&lt;/span&gt;&lt;/span&gt;&lt;/font&gt;&lt;/p&gt;&lt;p style=&quot;margin: 0px 0px 0px 40px; border: none; padding: 0px; line-height: 100%; font-size: 20px;&quot;&gt;&lt;font style=&quot;font-size: 20px;&quot;&gt;&lt;span style=&quot;font-size: 20px;&quot;&gt;&lt;span style=&quot;font-size: 20px;&quot;&gt;&lt;br style=&quot;font-size: 20px;&quot;&gt;&lt;/span&gt;&lt;/span&gt;&lt;/font&gt;&lt;/p&gt;&lt;p style=&quot;margin: 0px 0px 0px 40px; border: none; padding: 0px; line-height: 100%; font-size: 20px;&quot;&gt;&lt;font style=&quot;font-size: 20px;&quot;&gt;&lt;span style=&quot;font-size: 20px;&quot;&gt;&#9;&lt;/span&gt;&lt;span style=&quot;font-size: 20px;&quot;&gt;&#9;&lt;/span&gt;&lt;span style=&quot;font-size: 20px;&quot;&gt;&#9;&lt;/span&gt;&lt;span style=&quot;white-space: pre; font-size: 20px;&quot;&gt;&#9;&lt;/span&gt;&lt;span style=&quot;white-space: pre; font-size: 20px;&quot;&gt;&#9;&lt;/span&gt;&lt;span style=&quot;white-space: pre; font-size: 20px;&quot;&gt;&#9;&lt;/span&gt;highScoreHandler (stretch)&lt;br style=&quot;font-size: 20px;&quot;&gt;&lt;/font&gt;&lt;/p&gt;&lt;p style=&quot;margin: 0px 0px 0px 40px; border: none; padding: 0px; line-height: 100%; font-size: 20px;&quot;&gt;&lt;font style=&quot;font-size: 20px;&quot;&gt;&lt;span style=&quot;font-size: 20px;&quot;&gt;&#9;&lt;/span&gt;&lt;span style=&quot;font-size: 20px;&quot;&gt;&#9;&lt;/span&gt;&lt;span style=&quot;font-size: 20px;&quot;&gt;&#9;&lt;/span&gt;&lt;span style=&quot;font-size: 20px;&quot;&gt;&#9;&lt;/span&gt;&lt;span style=&quot;white-space: pre; font-size: 20px;&quot;&gt;&#9;&lt;/span&gt;&lt;span style=&quot;white-space: pre; font-size: 20px;&quot;&gt;&#9;&lt;/span&gt;&lt;span style=&quot;white-space: pre; font-size: 20px;&quot;&gt;&#9;&lt;/span&gt;&lt;span style=&quot;white-space: pre; font-size: 20px;&quot;&gt;&#9;&lt;/span&gt;adds and sorts winning score to highScoreArr&lt;br style=&quot;font-size: 20px;&quot;&gt;&lt;/font&gt;&lt;/p&gt;&lt;p style=&quot;margin: 0px 0px 0px 40px; border: none; padding: 0px; line-height: 100%; font-size: 20px;&quot;&gt;&lt;font style=&quot;font-size: 20px;&quot;&gt;&lt;font style=&quot;font-size: 20px;&quot;&gt;&lt;font style=&quot;font-size: 20px;&quot;&gt;&lt;span style=&quot;font-size: 20px;&quot;&gt;&lt;span style=&quot;font-size: 20px;&quot;&gt;&lt;br style=&quot;font-size: 20px;&quot;&gt;&lt;/span&gt;&lt;/span&gt;&lt;/font&gt;&lt;/font&gt;&lt;font style=&quot;font-size: 20px;&quot;&gt;&lt;font style=&quot;font-size: 20px;&quot;&gt;&lt;span style=&quot;font-size: 20px;&quot;&gt;&lt;span style=&quot;font-size: 20px;&quot;&gt;&lt;span style=&quot;font-size: 20px;&quot;&gt;&#9;&lt;/span&gt;&lt;span style=&quot;font-size: 20px;&quot;&gt;&#9;&lt;/span&gt;&lt;span style=&quot;white-space: pre; font-size: 20px;&quot;&gt;&#9;&lt;/span&gt;&lt;span style=&quot;white-space: pre; font-size: 20px;&quot;&gt;&#9;&lt;/span&gt;Features:&lt;br style=&quot;font-size: 20px;&quot;&gt;&lt;/span&gt;&lt;/span&gt;&lt;/font&gt;&lt;/font&gt;&lt;font style=&quot;font-size: 20px;&quot;&gt;&lt;font style=&quot;font-size: 20px;&quot;&gt;&lt;span style=&quot;font-size: 20px;&quot;&gt;&lt;span style=&quot;font-size: 20px;&quot;&gt;&lt;span style=&quot;font-size: 20px;&quot;&gt;&#9;&lt;/span&gt;&lt;span style=&quot;font-size: 20px;&quot;&gt;&#9;&lt;/span&gt;&lt;span style=&quot;font-size: 20px;&quot;&gt;&#9;&lt;/span&gt;&lt;span style=&quot;white-space: pre; font-size: 20px;&quot;&gt;&#9;&lt;/span&gt;&lt;span style=&quot;white-space: pre; font-size: 20px;&quot;&gt;&#9;&lt;/span&gt;&lt;span style=&quot;white-space: pre; font-size: 20px;&quot;&gt;&#9;&lt;/span&gt;New Game Button&lt;/span&gt;&lt;/span&gt;&lt;/font&gt;&lt;/font&gt;&lt;font style=&quot;font-size: 20px;&quot;&gt;&lt;font style=&quot;font-size: 20px;&quot;&gt;&lt;span style=&quot;font-size: 20px;&quot;&gt;&lt;span style=&quot;font-size: 20px;&quot;&gt;&lt;br style=&quot;font-size: 20px;&quot;&gt;&lt;/span&gt;&lt;/span&gt;&lt;/font&gt;&lt;/font&gt;&lt;font style=&quot;font-size: 20px;&quot;&gt;&lt;font style=&quot;font-size: 20px;&quot;&gt;&lt;span style=&quot;font-size: 20px;&quot;&gt;&lt;span style=&quot;font-size: 20px;&quot;&gt;&lt;span style=&quot;font-size: 20px;&quot;&gt;&#9;&lt;/span&gt;&lt;span style=&quot;font-size: 20px;&quot;&gt;&#9;&lt;span style=&quot;font-size: 20px;&quot;&gt;&#9;&lt;/span&gt;&lt;/span&gt;&lt;span style=&quot;white-space: pre; font-size: 20px;&quot;&gt;&#9;&lt;/span&gt;&lt;span style=&quot;white-space: pre; font-size: 20px;&quot;&gt;&#9;&lt;/span&gt;&lt;span style=&quot;white-space: pre; font-size: 20px;&quot;&gt;&#9;&lt;/span&gt;High Scores Table&lt;/span&gt;&lt;/span&gt;&lt;/font&gt;&lt;/font&gt;&lt;br style=&quot;font-size: 20px;&quot;&gt;&lt;/font&gt;&lt;/p&gt;&lt;p style=&quot;margin: 0px 0px 0px 40px; border: none; padding: 0px; line-height: 100%; font-size: 20px;&quot;&gt;&lt;font style=&quot;font-size: 20px;&quot;&gt;&lt;font style=&quot;font-size: 20px;&quot;&gt;&lt;font style=&quot;font-size: 20px;&quot;&gt;&lt;span style=&quot;font-size: 20px;&quot;&gt;&lt;span style=&quot;font-size: 20px;&quot;&gt;&lt;br style=&quot;font-size: 20px;&quot;&gt;&lt;/span&gt;&lt;/span&gt;&lt;/font&gt;&lt;/font&gt;&lt;font style=&quot;font-size: 20px;&quot;&gt;&lt;font style=&quot;font-size: 20px;&quot;&gt;&lt;span style=&quot;font-size: 20px;&quot;&gt;&lt;span style=&quot;font-size: 20px;&quot;&gt;&#9;&lt;/span&gt;&lt;span style=&quot;font-size: 20px;&quot;&gt;&#9;&lt;/span&gt;&lt;span style=&quot;white-space: pre; font-size: 20px;&quot;&gt;&#9;&lt;/span&gt;&lt;span style=&quot;white-space: pre; font-size: 20px;&quot;&gt;&#9;&lt;/span&gt;Props to pass&lt;br style=&quot;font-size: 20px;&quot;&gt;&lt;/span&gt;&lt;/font&gt;&lt;/font&gt;&lt;font style=&quot;font-size: 20px;&quot;&gt;&lt;font style=&quot;font-size: 20px;&quot;&gt;&lt;span style=&quot;font-size: 20px;&quot;&gt;&lt;span style=&quot;font-size: 20px;&quot;&gt;&#9;&lt;/span&gt;&lt;span style=&quot;font-size: 20px;&quot;&gt;&#9;&lt;/span&gt;&lt;span style=&quot;font-size: 20px;&quot;&gt;&#9;&lt;/span&gt;&lt;span style=&quot;white-space: pre; font-size: 20px;&quot;&gt;&#9;&lt;/span&gt;&lt;span style=&quot;white-space: pre; font-size: 20px;&quot;&gt;&#9;&lt;/span&gt;&lt;span style=&quot;white-space: pre; font-size: 20px;&quot;&gt;&#9;&lt;/span&gt;questionArray - gamePlay, gameSetup&lt;/span&gt;&lt;/font&gt;&lt;/font&gt;&lt;br style=&quot;font-size: 20px;&quot;&gt;&lt;/font&gt;&lt;/p&gt;&lt;p style=&quot;margin: 0px 0px 0px 40px; border: none; padding: 0px; line-height: 100%; font-size: 20px;&quot;&gt;&lt;font style=&quot;font-size: 20px;&quot;&gt;&lt;span style=&quot;font-size: 20px;&quot;&gt;&lt;span style=&quot;font-size: 20px;&quot;&gt;&#9;&lt;/span&gt;&lt;span style=&quot;font-size: 20px;&quot;&gt;&#9;&lt;/span&gt;&lt;span style=&quot;font-size: 20px;&quot;&gt;&#9;&lt;/span&gt;&lt;span style=&quot;white-space: pre; font-size: 20px;&quot;&gt;&#9;&lt;/span&gt;&lt;span style=&quot;white-space: pre; font-size: 20px;&quot;&gt;&#9;&lt;/span&gt;&lt;span style=&quot;white-space: pre; font-size: 20px;&quot;&gt;&#9;&lt;/span&gt;teamData - gamePlay&lt;br style=&quot;font-size: 20px;&quot;&gt;&lt;/span&gt;&lt;/font&gt;&lt;/p&gt;&lt;p style=&quot;margin: 0px 0px 0px 40px; border: none; padding: 0px; line-height: 100%; font-size: 20px;&quot;&gt;&lt;font style=&quot;font-size: 20px;&quot;&gt;&lt;span style=&quot;font-size: 20px;&quot;&gt;&lt;span style=&quot;white-space: pre; font-size: 20px;&quot;&gt;&#9;&lt;/span&gt;&lt;span style=&quot;white-space: pre; font-size: 20px;&quot;&gt;&#9;&lt;/span&gt;&lt;span style=&quot;white-space: pre; font-size: 20px;&quot;&gt;&#9;&lt;/span&gt;currentTeam - gamePlay, gameSetup&lt;/span&gt;&lt;/font&gt;&lt;/p&gt;&lt;p style=&quot;margin: 0px 0px 0px 40px; border: none; padding: 0px; line-height: 100%; font-size: 20px;&quot;&gt;&lt;font style=&quot;font-size: 20px;&quot;&gt;&lt;br style=&quot;font-size: 20px;&quot;&gt;&lt;/font&gt;&lt;/p&gt;&lt;p style=&quot;margin: 0px 0px 0px 40px; border: none; padding: 0px; line-height: 100%; font-size: 20px;&quot;&gt;&lt;font style=&quot;font-size: 20px;&quot;&gt;&lt;font style=&quot;font-size: 20px;&quot;&gt;&lt;font style=&quot;font-size: 20px;&quot;&gt;&lt;span style=&quot;white-space: pre; font-size: 20px;&quot;&gt;&#9;&lt;/span&gt;2) Game Setup&lt;br style=&quot;font-size: 20px;&quot;&gt;&lt;/font&gt;&lt;/font&gt;&lt;font style=&quot;font-size: 20px;&quot;&gt;&lt;font style=&quot;font-size: 20px;&quot;&gt;&lt;span style=&quot;font-size: 20px;&quot;&gt;&#9;&lt;/span&gt;&lt;span style=&quot;font-size: 20px;&quot;&gt;&#9;&lt;/span&gt;&lt;span style=&quot;white-space: pre; font-size: 20px;&quot;&gt;&#9;&lt;/span&gt;&lt;span style=&quot;white-space: pre; font-size: 20px;&quot;&gt;&#9;&lt;/span&gt;No State&lt;/font&gt;&lt;/font&gt;&lt;/font&gt;&lt;/p&gt;&lt;p style=&quot;margin: 0px 0px 0px 40px; border: none; padding: 0px; line-height: 100%; font-size: 20px;&quot;&gt;&lt;font style=&quot;font-size: 20px;&quot;&gt;&lt;br style=&quot;font-size: 20px;&quot;&gt;&lt;/font&gt;&lt;/p&gt;&lt;p style=&quot;margin: 0px 0px 0px 40px; border: none; padding: 0px; line-height: 100%; font-size: 20px;&quot;&gt;&lt;font style=&quot;font-size: 20px;&quot;&gt;&lt;font style=&quot;font-size: 20px;&quot;&gt;&lt;font style=&quot;font-size: 20px;&quot;&gt;&lt;span style=&quot;font-size: 20px;&quot;&gt;&#9;&lt;/span&gt;&lt;span style=&quot;font-size: 20px;&quot;&gt;&#9;&lt;/span&gt;&lt;span style=&quot;white-space: pre; font-size: 20px;&quot;&gt;&#9;&lt;/span&gt;&lt;span style=&quot;white-space: pre; font-size: 20px;&quot;&gt;&#9;&lt;/span&gt;Features:&lt;br style=&quot;font-size: 20px;&quot;&gt;&lt;/font&gt;&lt;/font&gt;&lt;font style=&quot;font-size: 20px;&quot;&gt;&lt;font style=&quot;font-size: 20px;&quot;&gt;&lt;span style=&quot;font-size: 20px;&quot;&gt;&#9;&lt;/span&gt;&lt;span style=&quot;font-size: 20px;&quot;&gt;&#9;&lt;/span&gt;&lt;span style=&quot;font-size: 20px;&quot;&gt;&#9;&lt;/span&gt;&lt;span style=&quot;white-space: pre; font-size: 20px;&quot;&gt;&#9;&lt;/span&gt;&lt;span style=&quot;white-space: pre; font-size: 20px;&quot;&gt;&#9;&lt;/span&gt;&lt;span style=&quot;white-space: pre; font-size: 20px;&quot;&gt;&#9;&lt;/span&gt;Form Inputs:&lt;br style=&quot;font-size: 20px;&quot;&gt;&lt;/font&gt;&lt;/font&gt;&lt;font style=&quot;font-size: 20px;&quot;&gt;&lt;font style=&quot;font-size: 20px;&quot;&gt;&lt;span style=&quot;font-size: 20px;&quot;&gt;&#9;&lt;/span&gt;&lt;span style=&quot;font-size: 20px;&quot;&gt;&#9;&lt;/span&gt;&lt;span style=&quot;font-size: 20px;&quot;&gt;&#9;&lt;/span&gt;&lt;span style=&quot;font-size: 20px;&quot;&gt;&#9;&lt;/span&gt;&lt;span style=&quot;white-space: pre; font-size: 20px;&quot;&gt;&#9;&lt;/span&gt;&lt;span style=&quot;white-space: pre; font-size: 20px;&quot;&gt;&#9;&lt;/span&gt;&lt;span style=&quot;white-space: pre; font-size: 20px;&quot;&gt;&#9;&lt;/span&gt;&lt;span style=&quot;white-space: pre; font-size: 20px;&quot;&gt;&#9;&lt;/span&gt;Team 1 name&lt;br style=&quot;font-size: 20px;&quot;&gt;&lt;/font&gt;&lt;/font&gt;&lt;font style=&quot;font-size: 20px;&quot;&gt;&lt;font style=&quot;font-size: 20px;&quot;&gt;&lt;span style=&quot;font-size: 20px;&quot;&gt;&#9;&lt;/span&gt;&lt;span style=&quot;font-size: 20px;&quot;&gt;&#9;&lt;/span&gt;&lt;span style=&quot;font-size: 20px;&quot;&gt;&#9;&lt;/span&gt;&lt;span style=&quot;font-size: 20px;&quot;&gt;&#9;&lt;/span&gt;&lt;span style=&quot;white-space: pre; font-size: 20px;&quot;&gt;&#9;&lt;/span&gt;&lt;span style=&quot;white-space: pre; font-size: 20px;&quot;&gt;&#9;&lt;/span&gt;&lt;span style=&quot;white-space: pre; font-size: 20px;&quot;&gt;&#9;&lt;/span&gt;&lt;span style=&quot;white-space: pre; font-size: 20px;&quot;&gt;&#9;&lt;/span&gt;Team 2 name&lt;/font&gt;&lt;/font&gt;&lt;br style=&quot;font-size: 20px;&quot;&gt;&lt;/font&gt;&lt;/p&gt;&lt;p style=&quot;margin: 0px 0px 0px 40px; border: none; padding: 0px; line-height: 100%; font-size: 20px;&quot;&gt;&lt;font style=&quot;font-size: 20px;&quot;&gt;&lt;font style=&quot;font-size: 20px;&quot;&gt;&lt;font style=&quot;font-size: 20px;&quot;&gt;&lt;br style=&quot;font-size: 20px;&quot;&gt;&lt;/font&gt;&lt;/font&gt;&lt;font style=&quot;font-size: 20px;&quot;&gt;&lt;font style=&quot;font-size: 20px;&quot;&gt;&lt;span style=&quot;font-size: 20px;&quot;&gt;&lt;span style=&quot;font-size: 20px;&quot;&gt;&#9;&lt;/span&gt;&lt;span style=&quot;font-size: 20px;&quot;&gt;&#9;&lt;/span&gt;&lt;span style=&quot;white-space: pre; font-size: 20px;&quot;&gt;&#9;&lt;/span&gt;&lt;span style=&quot;white-space: pre; font-size: 20px;&quot;&gt;&#9;&lt;/span&gt;Start Game Button&lt;/span&gt;&lt;/font&gt;&lt;/font&gt;&lt;/font&gt;&lt;/p&gt;&lt;p style=&quot;margin: 0px 0px 0px 40px; border: none; padding: 0px; line-height: 100%; font-size: 20px;&quot;&gt;&lt;font style=&quot;font-size: 20px;&quot;&gt;&lt;font style=&quot;font-size: 20px;&quot;&gt;&lt;font style=&quot;font-size: 20px;&quot;&gt;&lt;span style=&quot;font-size: 20px;&quot;&gt;&lt;br style=&quot;font-size: 20px;&quot;&gt;&lt;/span&gt;&lt;/font&gt;&lt;/font&gt;&lt;font style=&quot;font-size: 20px;&quot;&gt;&lt;font style=&quot;font-size: 20px;&quot;&gt;&lt;span style=&quot;font-size: 20px;&quot;&gt;&lt;span style=&quot;font-size: 20px;&quot;&gt;&#9;&lt;/span&gt;&lt;span style=&quot;font-size: 20px;&quot;&gt;&#9;&lt;/span&gt;&lt;span style=&quot;white-space: pre; font-size: 20px;&quot;&gt;&#9;&lt;/span&gt;&lt;span style=&quot;white-space: pre; font-size: 20px;&quot;&gt;&#9;&lt;/span&gt;Props to pass&lt;br style=&quot;font-size: 20px;&quot;&gt;&lt;/span&gt;&lt;/font&gt;&lt;/font&gt;&lt;font style=&quot;font-size: 20px;&quot;&gt;&lt;font style=&quot;font-size: 20px;&quot;&gt;&lt;span style=&quot;font-size: 20px;&quot;&gt;&lt;span style=&quot;font-size: 20px;&quot;&gt;&#9;&lt;/span&gt;&lt;span style=&quot;font-size: 20px;&quot;&gt;&#9;&lt;/span&gt;&lt;span style=&quot;font-size: 20px;&quot;&gt;&#9;&lt;/span&gt;&lt;span style=&quot;white-space: pre; font-size: 20px;&quot;&gt;&#9;&lt;/span&gt;&lt;span style=&quot;white-space: pre; font-size: 20px;&quot;&gt;&#9;&lt;/span&gt;&lt;span style=&quot;white-space: pre; font-size: 20px;&quot;&gt;&#9;&lt;/span&gt;teamData - App, Game Play&lt;br style=&quot;font-size: 20px;&quot;&gt;&lt;/span&gt;&lt;/font&gt;&lt;/font&gt;&lt;font style=&quot;font-size: 20px;&quot;&gt;&lt;font style=&quot;font-size: 20px;&quot;&gt;&lt;span style=&quot;font-size: 20px;&quot;&gt;&lt;span style=&quot;font-size: 20px;&quot;&gt;&lt;span style=&quot;white-space: pre; font-size: 20px;&quot;&gt;&#9;&lt;/span&gt;&lt;span style=&quot;white-space: pre; font-size: 20px;&quot;&gt;&#9;&lt;/span&gt;&lt;span style=&quot;white-space: pre; font-size: 20px;&quot;&gt;&#9;&lt;/span&gt;questionArray - Game Play&lt;/span&gt;&lt;/span&gt;&lt;/font&gt;&lt;/font&gt;&lt;font style=&quot;font-size: 20px;&quot;&gt;&lt;font style=&quot;font-size: 20px;&quot;&gt;&lt;span style=&quot;font-size: 20px;&quot;&gt;&lt;span style=&quot;font-size: 20px;&quot;&gt;&lt;br style=&quot;font-size: 20px;&quot;&gt;&lt;/span&gt;&lt;/span&gt;&lt;/font&gt;&lt;/font&gt;&lt;font style=&quot;font-size: 20px;&quot;&gt;&lt;font style=&quot;font-size: 20px;&quot;&gt;&lt;span style=&quot;font-size: 20px;&quot;&gt;&lt;span style=&quot;font-size: 20px;&quot;&gt;&lt;span style=&quot;white-space: pre; font-size: 20px;&quot;&gt;&#9;&lt;/span&gt;&lt;span style=&quot;white-space: pre; font-size: 20px;&quot;&gt;&#9;&lt;/span&gt;&lt;span style=&quot;white-space: pre; font-size: 20px;&quot;&gt;&#9;&lt;/span&gt;answeredQuestion - App&lt;/span&gt;&lt;/span&gt;&lt;/font&gt;&lt;/font&gt;&lt;/font&gt;&lt;/p&gt;&lt;p style=&quot;margin: 0px 0px 0px 40px; border: none; padding: 0px; line-height: 100%; font-size: 20px;&quot;&gt;&lt;font style=&quot;font-size: 20px;&quot;&gt;&lt;span style=&quot;font-size: 20px;&quot;&gt;&lt;span style=&quot;font-size: 20px;&quot;&gt;&lt;span style=&quot;white-space: pre; font-size: 20px;&quot;&gt;&#9;&lt;/span&gt;&lt;span style=&quot;white-space: pre; font-size: 20px;&quot;&gt;&#9;&lt;/span&gt;&lt;span style=&quot;white-space: pre; font-size: 20px;&quot;&gt;&#9;&lt;/span&gt;currentTeam - Game Play&lt;/span&gt;&lt;/span&gt;&lt;/font&gt;&lt;/p&gt;&lt;p style=&quot;margin: 0px 0px 0px 40px; border: none; padding: 0px; line-height: 100%; font-size: 20px;&quot;&gt;&lt;font style=&quot;font-size: 20px;&quot;&gt;&lt;font style=&quot;font-size: 20px;&quot;&gt;&lt;font style=&quot;font-size: 20px;&quot;&gt;&lt;span style=&quot;font-size: 20px;&quot;&gt;&lt;span style=&quot;font-size: 20px;&quot;&gt;&lt;br style=&quot;font-size: 20px;&quot;&gt;&lt;/span&gt;&lt;/span&gt;&lt;/font&gt;&lt;/font&gt;&lt;font style=&quot;font-size: 20px;&quot;&gt;&lt;font style=&quot;font-size: 20px;&quot;&gt;&lt;span style=&quot;white-space: pre; font-size: 20px;&quot;&gt;&#9;&lt;/span&gt;&lt;/font&gt;&lt;/font&gt;&lt;/font&gt;&lt;/p&gt;&lt;p style=&quot;margin: 0px 0px 0px 40px; border: none; padding: 0px; line-height: 100%; font-size: 20px;&quot;&gt;&lt;font style=&quot;font-size: 20px;&quot;&gt;&lt;span style=&quot;font-size: 20px;&quot;&gt;&#9;&lt;/span&gt;&lt;br style=&quot;font-size: 20px;&quot;&gt;&lt;/font&gt;&lt;/p&gt;&lt;p style=&quot;margin: 0px 0px 0px 40px; border: none; padding: 0px; line-height: 100%; font-size: 20px;&quot;&gt;&lt;font style=&quot;font-size: 20px;&quot;&gt;&lt;span style=&quot;font-size: 20px;&quot;&gt;&#9;&lt;/span&gt;&lt;br style=&quot;font-size: 20px;&quot;&gt;&lt;/font&gt;&lt;/p&gt;&lt;p style=&quot;margin: 0px 0px 0px 40px; border: none; padding: 0px; line-height: 100%; font-size: 20px;&quot;&gt;&lt;font style=&quot;font-size: 20px;&quot;&gt;&lt;br style=&quot;font-size: 20px;&quot;&gt;&lt;/font&gt;&lt;/p&gt;&lt;font style=&quot;font-size: 20px;&quot;&gt;&#9;&#9;&#9;&#9;&lt;br style=&quot;font-size: 20px;&quot;&gt;&lt;/font&gt;&lt;span style=&quot;font-size: 20px;&quot;&gt;&#9;&lt;/span&gt;" style="text;strokeColor=none;fillColor=none;align=left;verticalAlign=top;spacingLeft=4;spacingRight=4;overflow=hidden;rotatable=0;points=[[0,0.5],[1,0.5]];portConstraint=eastwest;html=1;fontSize=20;container=1;" parent="1" vertex="1">
                    <mxGeometry x="-5030" y="400" width="1030" height="1400" as="geometry"/>
                </mxCell>
                <mxCell id="115" value="&lt;p style=&quot;box-sizing: border-box; margin: 1rem 0px; padding: 0px; font-variant-numeric: inherit; font-variant-east-asian: inherit; font-variant-alternates: inherit; font-stretch: inherit; font-size: 15px; line-height: 24px; font-family: Verdana, sans-serif; font-optical-sizing: inherit; font-kerning: inherit; font-feature-settings: inherit; font-variation-settings: inherit; text-align: justify; overflow-wrap: break-word;&quot;&gt;This can be done through creating a random number using Math.random() and removing the item at that index using Array.prototype.splice() and printing it until the length of array shrinks to 0.&lt;/p&gt;&lt;p style=&quot;box-sizing: border-box; margin: 1rem 0px; padding: 0px; font-variant-numeric: inherit; font-variant-east-asian: inherit; font-variant-alternates: inherit; font-stretch: inherit; font-size: 15px; line-height: 24px; font-family: Verdana, sans-serif; font-optical-sizing: inherit; font-kerning: inherit; font-feature-settings: inherit; font-variation-settings: inherit; text-align: justify; overflow-wrap: break-word;&quot;&gt;Here is the code for doing the same −&lt;/p&gt;&lt;h2 style=&quot;box-sizing: border-box; margin: 1rem 0px; padding: 1.5rem 0px 0px; font-variant-numeric: inherit; font-variant-east-asian: inherit; font-variant-alternates: inherit; font-weight: 500; font-stretch: inherit; font-size: 1.7rem; line-height: 1; font-family: var(--ff-lato); font-optical-sizing: inherit; font-kerning: inherit; font-feature-settings: inherit; font-variation-settings: inherit; text-align: start;&quot;&gt;Example&lt;/h2&gt;&lt;pre style=&quot;box-sizing: border-box; margin-top: 1rem; margin-bottom: 1rem; padding: 2px; font-variant-numeric: inherit; font-variant-east-asian: inherit; font-variant-alternates: inherit; font-stretch: inherit; font-size: medium; line-height: inherit; font-family: monospace, Consolas, Courier; font-optical-sizing: inherit; font-kerning: inherit; font-feature-settings: inherit; font-variation-settings: inherit; overflow: auto; width: 901.297px; border: 1px solid rgb(136, 136, 136); border-radius: 5px; text-align: start; background: rgb(238, 238, 238) !important;&quot; class=&quot;prettyprint notranslate prettyprinted&quot;&gt;&lt;span style=&quot;box-sizing: border-box; margin: 0px; padding: 0px; font: inherit; color: rgb(0, 0, 136);&quot; class=&quot;kwd&quot;&gt;const&lt;/span&gt;&lt;span style=&quot;box-sizing: border-box; margin: 0px; padding: 0px; font: inherit;&quot; class=&quot;pln&quot;&gt; arr &lt;/span&gt;&lt;span style=&quot;box-sizing: border-box; margin: 0px; padding: 0px; font: inherit; color: rgb(102, 102, 0);&quot; class=&quot;pun&quot;&gt;=&lt;/span&gt;&lt;span style=&quot;box-sizing: border-box; margin: 0px; padding: 0px; font: inherit;&quot; class=&quot;pln&quot;&gt; &lt;/span&gt;&lt;span style=&quot;box-sizing: border-box; margin: 0px; padding: 0px; font: inherit; color: rgb(102, 102, 0);&quot; class=&quot;pun&quot;&gt;[&lt;/span&gt;&lt;span style=&quot;box-sizing: border-box; margin: 0px; padding: 0px; font: inherit; color: rgb(0, 136, 0);&quot; class=&quot;str&quot;&gt;'Arsenal'&lt;/span&gt;&lt;span style=&quot;box-sizing: border-box; margin: 0px; padding: 0px; font: inherit; color: rgb(102, 102, 0);&quot; class=&quot;pun&quot;&gt;,&lt;/span&gt;&lt;span style=&quot;box-sizing: border-box; margin: 0px; padding: 0px; font: inherit;&quot; class=&quot;pln&quot;&gt; &lt;/span&gt;&lt;span style=&quot;box-sizing: border-box; margin: 0px; padding: 0px; font: inherit; color: rgb(0, 136, 0);&quot; class=&quot;str&quot;&gt;'Manchester United'&lt;/span&gt;&lt;span style=&quot;box-sizing: border-box; margin: 0px; padding: 0px; font: inherit; color: rgb(102, 102, 0);&quot; class=&quot;pun&quot;&gt;,&lt;/span&gt;&lt;span style=&quot;box-sizing: border-box; margin: 0px; padding: 0px; font: inherit;&quot; class=&quot;pln&quot;&gt; &lt;/span&gt;&lt;span style=&quot;box-sizing: border-box; margin: 0px; padding: 0px; font: inherit; color: rgb(0, 136, 0);&quot; class=&quot;str&quot;&gt;'Chelsea'&lt;/span&gt;&lt;span style=&quot;box-sizing: border-box; margin: 0px; padding: 0px; font: inherit; color: rgb(102, 102, 0);&quot; class=&quot;pun&quot;&gt;,&lt;/span&gt;&lt;span style=&quot;box-sizing: border-box; margin: 0px; padding: 0px; font: inherit;&quot; class=&quot;pln&quot;&gt; &lt;/span&gt;&lt;span style=&quot;box-sizing: border-box; margin: 0px; padding: 0px; font: inherit; color: rgb(0, 136, 0);&quot; class=&quot;str&quot;&gt;'Liverpool'&lt;/span&gt;&lt;span style=&quot;box-sizing: border-box; margin: 0px; padding: 0px; font: inherit; color: rgb(102, 102, 0);&quot; class=&quot;pun&quot;&gt;,&lt;/span&gt;&lt;span style=&quot;box-sizing: border-box; margin: 0px; padding: 0px; font: inherit;&quot; class=&quot;pln&quot;&gt;&lt;br/&gt;&lt;/span&gt;&lt;span style=&quot;box-sizing: border-box; margin: 0px; padding: 0px; font: inherit; color: rgb(0, 136, 0);&quot; class=&quot;str&quot;&gt;'Leicester City'&lt;/span&gt;&lt;span style=&quot;box-sizing: border-box; margin: 0px; padding: 0px; font: inherit; color: rgb(102, 102, 0);&quot; class=&quot;pun&quot;&gt;,&lt;/span&gt;&lt;span style=&quot;box-sizing: border-box; margin: 0px; padding: 0px; font: inherit;&quot; class=&quot;pln&quot;&gt; &lt;/span&gt;&lt;span style=&quot;box-sizing: border-box; margin: 0px; padding: 0px; font: inherit; color: rgb(0, 136, 0);&quot; class=&quot;str&quot;&gt;'Manchester City'&lt;/span&gt;&lt;span style=&quot;box-sizing: border-box; margin: 0px; padding: 0px; font: inherit; color: rgb(102, 102, 0);&quot; class=&quot;pun&quot;&gt;,&lt;/span&gt;&lt;span style=&quot;box-sizing: border-box; margin: 0px; padding: 0px; font: inherit;&quot; class=&quot;pln&quot;&gt; &lt;/span&gt;&lt;span style=&quot;box-sizing: border-box; margin: 0px; padding: 0px; font: inherit; color: rgb(0, 136, 0);&quot; class=&quot;str&quot;&gt;'Everton'&lt;/span&gt;&lt;span style=&quot;box-sizing: border-box; margin: 0px; padding: 0px; font: inherit; color: rgb(102, 102, 0);&quot; class=&quot;pun&quot;&gt;,&lt;/span&gt;&lt;span style=&quot;box-sizing: border-box; margin: 0px; padding: 0px; font: inherit;&quot; class=&quot;pln&quot;&gt; &lt;/span&gt;&lt;span style=&quot;box-sizing: border-box; margin: 0px; padding: 0px; font: inherit; color: rgb(0, 136, 0);&quot; class=&quot;str&quot;&gt;'Fulham'&lt;/span&gt;&lt;span style=&quot;box-sizing: border-box; margin: 0px; padding: 0px; font: inherit; color: rgb(102, 102, 0);&quot; class=&quot;pun&quot;&gt;,&lt;/span&gt;&lt;span style=&quot;box-sizing: border-box; margin: 0px; padding: 0px; font: inherit;&quot; class=&quot;pln&quot;&gt; &lt;/span&gt;&lt;span style=&quot;box-sizing: border-box; margin: 0px; padding: 0px; font: inherit; color: rgb(0, 136, 0);&quot; class=&quot;str&quot;&gt;'Cardiff City'&lt;/span&gt;&lt;span style=&quot;box-sizing: border-box; margin: 0px; padding: 0px; font: inherit; color: rgb(102, 102, 0);&quot; class=&quot;pun&quot;&gt;];&lt;/span&gt;&lt;span style=&quot;box-sizing: border-box; margin: 0px; padding: 0px; font: inherit;&quot; class=&quot;pln&quot;&gt;&lt;br/&gt;&lt;/span&gt;&lt;span style=&quot;box-sizing: border-box; margin: 0px; padding: 0px; font: inherit; color: rgb(0, 0, 136);&quot; class=&quot;kwd&quot;&gt;const&lt;/span&gt;&lt;span style=&quot;box-sizing: border-box; margin: 0px; padding: 0px; font: inherit;&quot; class=&quot;pln&quot;&gt; removeRandom &lt;/span&gt;&lt;span style=&quot;box-sizing: border-box; margin: 0px; padding: 0px; font: inherit; color: rgb(102, 102, 0);&quot; class=&quot;pun&quot;&gt;=&lt;/span&gt;&lt;span style=&quot;box-sizing: border-box; margin: 0px; padding: 0px; font: inherit;&quot; class=&quot;pln&quot;&gt; &lt;/span&gt;&lt;span style=&quot;box-sizing: border-box; margin: 0px; padding: 0px; font: inherit; color: rgb(102, 102, 0);&quot; class=&quot;pun&quot;&gt;(&lt;/span&gt;&lt;span style=&quot;box-sizing: border-box; margin: 0px; padding: 0px; font: inherit;&quot; class=&quot;pln&quot;&gt;array&lt;/span&gt;&lt;span style=&quot;box-sizing: border-box; margin: 0px; padding: 0px; font: inherit; color: rgb(102, 102, 0);&quot; class=&quot;pun&quot;&gt;)&lt;/span&gt;&lt;span style=&quot;box-sizing: border-box; margin: 0px; padding: 0px; font: inherit;&quot; class=&quot;pln&quot;&gt; &lt;/span&gt;&lt;span style=&quot;box-sizing: border-box; margin: 0px; padding: 0px; font: inherit; color: rgb(102, 102, 0);&quot; class=&quot;pun&quot;&gt;=&amp;gt;&lt;/span&gt;&lt;span style=&quot;box-sizing: border-box; margin: 0px; padding: 0px; font: inherit;&quot; class=&quot;pln&quot;&gt; &lt;/span&gt;&lt;span style=&quot;box-sizing: border-box; margin: 0px; padding: 0px; font: inherit; color: rgb(102, 102, 0);&quot; class=&quot;pun&quot;&gt;{&lt;/span&gt;&lt;span style=&quot;box-sizing: border-box; margin: 0px; padding: 0px; font: inherit;&quot; class=&quot;pln&quot;&gt;&lt;br/&gt;&amp;nbsp; &amp;nbsp;&lt;/span&gt;&lt;span style=&quot;box-sizing: border-box; margin: 0px; padding: 0px; font: inherit; color: rgb(0, 0, 136);&quot; class=&quot;kwd&quot;&gt;while&lt;/span&gt;&lt;span style=&quot;box-sizing: border-box; margin: 0px; padding: 0px; font: inherit; color: rgb(102, 102, 0);&quot; class=&quot;pun&quot;&gt;(&lt;/span&gt;&lt;span style=&quot;box-sizing: border-box; margin: 0px; padding: 0px; font: inherit;&quot; class=&quot;pln&quot;&gt;array&lt;/span&gt;&lt;span style=&quot;box-sizing: border-box; margin: 0px; padding: 0px; font: inherit; color: rgb(102, 102, 0);&quot; class=&quot;pun&quot;&gt;.&lt;/span&gt;&lt;span style=&quot;box-sizing: border-box; margin: 0px; padding: 0px; font: inherit;&quot; class=&quot;pln&quot;&gt;length&lt;/span&gt;&lt;span style=&quot;box-sizing: border-box; margin: 0px; padding: 0px; font: inherit; color: rgb(102, 102, 0);&quot; class=&quot;pun&quot;&gt;){&lt;/span&gt;&lt;span style=&quot;box-sizing: border-box; margin: 0px; padding: 0px; font: inherit;&quot; class=&quot;pln&quot;&gt;&lt;br/&gt;&amp;nbsp; &amp;nbsp; &amp;nbsp; &lt;/span&gt;&lt;span style=&quot;box-sizing: border-box; margin: 0px; padding: 0px; font: inherit; color: rgb(0, 0, 136);&quot; class=&quot;kwd&quot;&gt;const&lt;/span&gt;&lt;span style=&quot;box-sizing: border-box; margin: 0px; padding: 0px; font: inherit;&quot; class=&quot;pln&quot;&gt; random &lt;/span&gt;&lt;span style=&quot;box-sizing: border-box; margin: 0px; padding: 0px; font: inherit; color: rgb(102, 102, 0);&quot; class=&quot;pun&quot;&gt;=&lt;/span&gt;&lt;span style=&quot;box-sizing: border-box; margin: 0px; padding: 0px; font: inherit;&quot; class=&quot;pln&quot;&gt; &lt;/span&gt;&lt;span style=&quot;box-sizing: border-box; margin: 0px; padding: 0px; font: inherit; color: rgb(102, 0, 102);&quot; class=&quot;typ&quot;&gt;Math&lt;/span&gt;&lt;span style=&quot;box-sizing: border-box; margin: 0px; padding: 0px; font: inherit; color: rgb(102, 102, 0);&quot; class=&quot;pun&quot;&gt;.&lt;/span&gt;&lt;span style=&quot;box-sizing: border-box; margin: 0px; padding: 0px; font: inherit;&quot; class=&quot;pln&quot;&gt;floor&lt;/span&gt;&lt;span style=&quot;box-sizing: border-box; margin: 0px; padding: 0px; font: inherit; color: rgb(102, 102, 0);&quot; class=&quot;pun&quot;&gt;(&lt;/span&gt;&lt;span style=&quot;box-sizing: border-box; margin: 0px; padding: 0px; font: inherit; color: rgb(102, 0, 102);&quot; class=&quot;typ&quot;&gt;Math&lt;/span&gt;&lt;span style=&quot;box-sizing: border-box; margin: 0px; padding: 0px; font: inherit; color: rgb(102, 102, 0);&quot; class=&quot;pun&quot;&gt;.&lt;/span&gt;&lt;span style=&quot;box-sizing: border-box; margin: 0px; padding: 0px; font: inherit;&quot; class=&quot;pln&quot;&gt;random&lt;/span&gt;&lt;span style=&quot;box-sizing: border-box; margin: 0px; padding: 0px; font: inherit; color: rgb(102, 102, 0);&quot; class=&quot;pun&quot;&gt;()&lt;/span&gt;&lt;span style=&quot;box-sizing: border-box; margin: 0px; padding: 0px; font: inherit;&quot; class=&quot;pln&quot;&gt; &lt;/span&gt;&lt;span style=&quot;box-sizing: border-box; margin: 0px; padding: 0px; font: inherit; color: rgb(102, 102, 0);&quot; class=&quot;pun&quot;&gt;*&lt;/span&gt;&lt;span style=&quot;box-sizing: border-box; margin: 0px; padding: 0px; font: inherit;&quot; class=&quot;pln&quot;&gt; array&lt;/span&gt;&lt;span style=&quot;box-sizing: border-box; margin: 0px; padding: 0px; font: inherit; color: rgb(102, 102, 0);&quot; class=&quot;pun&quot;&gt;.&lt;/span&gt;&lt;span style=&quot;box-sizing: border-box; margin: 0px; padding: 0px; font: inherit;&quot; class=&quot;pln&quot;&gt;length&lt;/span&gt;&lt;span style=&quot;box-sizing: border-box; margin: 0px; padding: 0px; font: inherit; color: rgb(102, 102, 0);&quot; class=&quot;pun&quot;&gt;);&lt;/span&gt;&lt;span style=&quot;box-sizing: border-box; margin: 0px; padding: 0px; font: inherit;&quot; class=&quot;pln&quot;&gt;&lt;br/&gt;&amp;nbsp; &amp;nbsp; &amp;nbsp; &lt;/span&gt;&lt;span style=&quot;box-sizing: border-box; margin: 0px; padding: 0px; font: inherit; color: rgb(0, 0, 136);&quot; class=&quot;kwd&quot;&gt;const&lt;/span&gt;&lt;span style=&quot;box-sizing: border-box; margin: 0px; padding: 0px; font: inherit;&quot; class=&quot;pln&quot;&gt; el &lt;/span&gt;&lt;span style=&quot;box-sizing: border-box; margin: 0px; padding: 0px; font: inherit; color: rgb(102, 102, 0);&quot; class=&quot;pun&quot;&gt;=&lt;/span&gt;&lt;span style=&quot;box-sizing: border-box; margin: 0px; padding: 0px; font: inherit;&quot; class=&quot;pln&quot;&gt; array&lt;/span&gt;&lt;span style=&quot;box-sizing: border-box; margin: 0px; padding: 0px; font: inherit; color: rgb(102, 102, 0);&quot; class=&quot;pun&quot;&gt;.&lt;/span&gt;&lt;span style=&quot;box-sizing: border-box; margin: 0px; padding: 0px; font: inherit;&quot; class=&quot;pln&quot;&gt;splice&lt;/span&gt;&lt;span style=&quot;box-sizing: border-box; margin: 0px; padding: 0px; font: inherit; color: rgb(102, 102, 0);&quot; class=&quot;pun&quot;&gt;(&lt;/span&gt;&lt;span style=&quot;box-sizing: border-box; margin: 0px; padding: 0px; font: inherit;&quot; class=&quot;pln&quot;&gt;random&lt;/span&gt;&lt;span style=&quot;box-sizing: border-box; margin: 0px; padding: 0px; font: inherit; color: rgb(102, 102, 0);&quot; class=&quot;pun&quot;&gt;,&lt;/span&gt;&lt;span style=&quot;box-sizing: border-box; margin: 0px; padding: 0px; font: inherit;&quot; class=&quot;pln&quot;&gt; &lt;/span&gt;&lt;span style=&quot;box-sizing: border-box; margin: 0px; padding: 0px; font: inherit; color: rgb(0, 102, 102);&quot; class=&quot;lit&quot;&gt;1&lt;/span&gt;&lt;span style=&quot;box-sizing: border-box; margin: 0px; padding: 0px; font: inherit; color: rgb(102, 102, 0);&quot; class=&quot;pun&quot;&gt;)[&lt;/span&gt;&lt;span style=&quot;box-sizing: border-box; margin: 0px; padding: 0px; font: inherit; color: rgb(0, 102, 102);&quot; class=&quot;lit&quot;&gt;0&lt;/span&gt;&lt;span style=&quot;box-sizing: border-box; margin: 0px; padding: 0px; font: inherit; color: rgb(102, 102, 0);&quot; class=&quot;pun&quot;&gt;];&lt;/span&gt;&lt;span style=&quot;box-sizing: border-box; margin: 0px; padding: 0px; font: inherit;&quot; class=&quot;pln&quot;&gt;&lt;br/&gt;&amp;nbsp; &amp;nbsp; &amp;nbsp; console&lt;/span&gt;&lt;span style=&quot;box-sizing: border-box; margin: 0px; padding: 0px; font: inherit; color: rgb(102, 102, 0);&quot; class=&quot;pun&quot;&gt;.&lt;/span&gt;&lt;span style=&quot;box-sizing: border-box; margin: 0px; padding: 0px; font: inherit;&quot; class=&quot;pln&quot;&gt;log&lt;/span&gt;&lt;span style=&quot;box-sizing: border-box; margin: 0px; padding: 0px; font: inherit; color: rgb(102, 102, 0);&quot; class=&quot;pun&quot;&gt;(&lt;/span&gt;&lt;span style=&quot;box-sizing: border-box; margin: 0px; padding: 0px; font: inherit;&quot; class=&quot;pln&quot;&gt;el&lt;/span&gt;&lt;span style=&quot;box-sizing: border-box; margin: 0px; padding: 0px; font: inherit; color: rgb(102, 102, 0);&quot; class=&quot;pun&quot;&gt;);&lt;/span&gt;&lt;span style=&quot;box-sizing: border-box; margin: 0px; padding: 0px; font: inherit;&quot; class=&quot;pln&quot;&gt;&lt;br/&gt;&amp;nbsp; &amp;nbsp;&lt;/span&gt;&lt;span style=&quot;box-sizing: border-box; margin: 0px; padding: 0px; font: inherit; color: rgb(102, 102, 0);&quot; class=&quot;pun&quot;&gt;}&lt;/span&gt;&lt;span style=&quot;box-sizing: border-box; margin: 0px; padding: 0px; font: inherit;&quot; class=&quot;pln&quot;&gt;&lt;br/&gt;&lt;/span&gt;&lt;span style=&quot;box-sizing: border-box; margin: 0px; padding: 0px; font: inherit; color: rgb(102, 102, 0);&quot; class=&quot;pun&quot;&gt;};&lt;/span&gt;&lt;span style=&quot;box-sizing: border-box; margin: 0px; padding: 0px; font: inherit;&quot; class=&quot;pln&quot;&gt;&lt;br/&gt;removeRandom&lt;/span&gt;&lt;span style=&quot;box-sizing: border-box; margin: 0px; padding: 0px; font: inherit; color: rgb(102, 102, 0);&quot; class=&quot;pun&quot;&gt;(&lt;/span&gt;&lt;span style=&quot;box-sizing: border-box; margin: 0px; padding: 0px; font: inherit;&quot; class=&quot;pln&quot;&gt;arr&lt;/span&gt;&lt;span style=&quot;box-sizing: border-box; margin: 0px; padding: 0px; font: inherit; color: rgb(102, 102, 0);&quot; class=&quot;pun&quot;&gt;);&lt;/span&gt;&lt;/pre&gt;" style="text;html=1;strokeColor=none;fillColor=none;align=center;verticalAlign=middle;whiteSpace=wrap;rounded=0;fontSize=35;" parent="1" vertex="1">
                    <mxGeometry x="-3760.66" y="1920" width="400" height="330" as="geometry"/>
                </mxCell>
                <mxCell id="130" value="&lt;p style=&quot;margin: 0px 0px 0px 40px; border: none; padding: 0px; line-height: 100%; font-size: 20px;&quot;&gt;&lt;font style=&quot;font-size: 20px;&quot;&gt;&lt;font style=&quot;font-size: 20px;&quot;&gt;&lt;b&gt;components:&lt;br&gt;&lt;/b&gt;&lt;/font&gt;&lt;/font&gt;&lt;/p&gt;&lt;p style=&quot;margin: 0px 0px 0px 40px; border: none; padding: 0px; line-height: 100%; font-size: 20px;&quot;&gt;&lt;font style=&quot;font-size: 20px;&quot;&gt;&lt;font style=&quot;font-size: 20px;&quot;&gt;&lt;font style=&quot;font-size: 20px;&quot;&gt;&lt;span style=&quot;&quot;&gt;&#9;&lt;/span&gt;3) Game Play&lt;br&gt;&lt;/font&gt;&lt;/font&gt;&lt;font style=&quot;font-size: 20px;&quot;&gt;&lt;font style=&quot;font-size: 20px;&quot;&gt;&lt;span style=&quot;&quot;&gt;&#9;&lt;/span&gt;&lt;span style=&quot;&quot;&gt;&#9;&lt;/span&gt;State:&lt;br&gt;&lt;/font&gt;&lt;/font&gt;&lt;font style=&quot;font-size: 20px;&quot;&gt;&lt;font style=&quot;font-size: 20px;&quot;&gt;&lt;span style=&quot;&quot;&gt;&#9;&lt;/span&gt;&lt;span style=&quot;&quot;&gt;&#9;&lt;/span&gt;&lt;span style=&quot;&quot;&gt;&#9;&lt;/span&gt;currentQuestion&lt;br&gt;&lt;/font&gt;&lt;/font&gt;&lt;font style=&quot;font-size: 20px;&quot;&gt;&lt;font style=&quot;font-size: 20px;&quot;&gt;&lt;span style=&quot;&quot;&gt;&#9;&lt;/span&gt;&lt;span style=&quot;&quot;&gt;&#9;&lt;/span&gt;&lt;span style=&quot;&quot;&gt;&#9;&lt;/span&gt;&lt;span style=&quot;&quot;&gt;&#9;&lt;/span&gt;randomly selects question from questionArray&lt;br&gt;&lt;/font&gt;&lt;/font&gt;&lt;font style=&quot;font-size: 20px;&quot;&gt;&lt;font style=&quot;font-size: 20px;&quot;&gt;&lt;br&gt;&lt;/font&gt;&lt;/font&gt;&lt;font style=&quot;font-size: 20px;&quot;&gt;&lt;font style=&quot;font-size: 20px;&quot;&gt;&lt;span style=&quot;&quot;&gt;&#9;&lt;/span&gt;&lt;span style=&quot;&quot;&gt;&#9;&lt;/span&gt;Handlers:&lt;/font&gt;&lt;/font&gt;&lt;font style=&quot;font-size: 20px;&quot;&gt;&lt;font style=&quot;font-size: 20px;&quot;&gt;&lt;br&gt;&lt;/font&gt;&lt;/font&gt;&lt;font style=&quot;font-size: 20px;&quot;&gt;&lt;font style=&quot;font-size: 20px;&quot;&gt;&lt;span style=&quot;&quot;&gt;&#9;&lt;/span&gt;&lt;span style=&quot;&quot;&gt;&#9;&lt;/span&gt;&lt;span style=&quot;&quot;&gt;&#9;&lt;/span&gt;setCurrentQuestion&lt;/font&gt;&lt;/font&gt;&lt;/font&gt;&lt;/p&gt;&lt;p style=&quot;margin: 0px 0px 0px 40px; border: none; padding: 0px; line-height: 100%; font-size: 20px;&quot;&gt;&lt;font style=&quot;font-size: 20px;&quot;&gt;&lt;font style=&quot;font-size: 20px;&quot;&gt;&lt;font style=&quot;font-size: 20px;&quot;&gt;&lt;br&gt;&lt;/font&gt;&lt;/font&gt;&lt;font style=&quot;font-size: 20px;&quot;&gt;&lt;font style=&quot;font-size: 20px;&quot;&gt;&lt;span style=&quot;&quot;&gt;&#9;&lt;/span&gt;&lt;span style=&quot;&quot;&gt;&#9;&lt;/span&gt;Features:&lt;br&gt;&lt;/font&gt;&lt;/font&gt;&lt;font style=&quot;font-size: 20px;&quot;&gt;&lt;font style=&quot;font-size: 20px;&quot;&gt;&lt;span style=&quot;&quot;&gt;&#9;&lt;/span&gt;&lt;span style=&quot;&quot;&gt;&#9;&lt;/span&gt;&lt;span style=&quot;&quot;&gt;&#9;&lt;/span&gt;Question Card&lt;br&gt;&lt;/font&gt;&lt;/font&gt;&lt;font style=&quot;font-size: 20px;&quot;&gt;&lt;font style=&quot;font-size: 20px;&quot;&gt;&lt;span style=&quot;&quot;&gt;&#9;&lt;/span&gt;&lt;span style=&quot;&quot;&gt;&#9;&lt;/span&gt;&lt;span style=&quot;&quot;&gt;&#9;&lt;/span&gt;Team Cards&lt;/font&gt;&lt;/font&gt;&lt;/font&gt;&lt;/p&gt;&lt;p style=&quot;margin: 0px 0px 0px 40px; border: none; padding: 0px; line-height: 100%; font-size: 20px;&quot;&gt;&lt;font style=&quot;font-size: 20px;&quot;&gt;&lt;font style=&quot;font-size: 20px;&quot;&gt;&lt;font style=&quot;font-size: 20px;&quot;&gt;&lt;br&gt;&lt;/font&gt;&lt;/font&gt;&lt;font style=&quot;font-size: 20px;&quot;&gt;&lt;font style=&quot;font-size: 20px;&quot;&gt;&lt;span style=&quot;&quot;&gt;&#9;&lt;/span&gt;&lt;span style=&quot;&quot;&gt;&#9;&lt;/span&gt;Props to pass:&amp;nbsp;&lt;br&gt;&lt;/font&gt;&lt;/font&gt;&lt;font style=&quot;font-size: 20px;&quot;&gt;&lt;font style=&quot;font-size: 20px;&quot;&gt;&lt;span style=&quot;&quot;&gt;&#9;&lt;/span&gt;&lt;span style=&quot;&quot;&gt;&#9;&lt;/span&gt;&lt;span style=&quot;&quot;&gt;&#9;&lt;/span&gt;Team Data - Team Card, App&lt;br&gt;&lt;/font&gt;&lt;/font&gt;&lt;font style=&quot;font-size: 20px;&quot;&gt;&lt;font style=&quot;font-size: 20px;&quot;&gt;&lt;span style=&quot;&quot;&gt;&#9;&lt;/span&gt;&lt;span style=&quot;&quot;&gt;&#9;&lt;/span&gt;&lt;span style=&quot;&quot;&gt;&#9;&lt;/span&gt;currentQuestion - Question Card&lt;br&gt;&lt;/font&gt;&lt;/font&gt;&lt;font style=&quot;font-size: 20px;&quot;&gt;&lt;font style=&quot;font-size: 20px;&quot;&gt;&lt;span style=&quot;&quot;&gt;&#9;&lt;/span&gt;&lt;span style=&quot;&quot;&gt;&#9;&lt;/span&gt;&lt;span style=&quot;&quot;&gt;&#9;&lt;/span&gt;answeredQuestion- App&lt;/font&gt;&lt;/font&gt;&lt;/font&gt;&lt;/p&gt;&lt;p style=&quot;margin: 0px 0px 0px 40px; border: none; padding: 0px; line-height: 100%; font-size: 20px;&quot;&gt;&lt;font style=&quot;font-size: 20px;&quot;&gt;&lt;font style=&quot;font-size: 20px;&quot;&gt;&lt;font style=&quot;font-size: 20px;&quot;&gt;&lt;span style=&quot;&quot;&gt;&#9;&lt;/span&gt;&lt;span style=&quot;&quot;&gt;&#9;&lt;/span&gt;&lt;span style=&quot;&quot;&gt;&#9;&lt;/span&gt;currentTeam - Question Card&amp;nbsp;&lt;br&gt;&lt;/font&gt;&lt;/font&gt;&lt;font style=&quot;font-size: 20px;&quot;&gt;&lt;font style=&quot;font-size: 20px;&quot;&gt;&lt;br&gt;&lt;/font&gt;&lt;/font&gt;&lt;font style=&quot;font-size: 20px;&quot;&gt;&lt;font style=&quot;font-size: 20px;&quot;&gt;&lt;span style=&quot;&quot;&gt;&#9;&lt;/span&gt;4)&amp;nbsp;Team Card - &lt;font color=&quot;#66ffff&quot;&gt;Let's call this ScoreBoard&lt;/font&gt;&lt;/font&gt;&lt;/font&gt;&lt;/font&gt;&lt;/p&gt;&lt;p style=&quot;margin: 0px 0px 0px 40px; border: none; padding: 0px; line-height: 100%; font-size: 20px;&quot;&gt;&lt;font style=&quot;font-size: 20px;&quot;&gt;&lt;br&gt;&lt;/font&gt;&lt;/p&gt;&lt;p style=&quot;margin: 0px 0px 0px 40px; border: none; padding: 0px; line-height: 100%; font-size: 20px;&quot;&gt;&lt;font style=&quot;font-size: 20px;&quot;&gt;&lt;font style=&quot;font-size: 20px;&quot;&gt;&lt;font style=&quot;font-size: 20px;&quot;&gt;&lt;span style=&quot;&quot;&gt;&#9;&lt;/span&gt;&lt;span style=&quot;&quot;&gt;&#9;&lt;/span&gt;Features:&lt;br&gt;&lt;/font&gt;&lt;/font&gt;&lt;font style=&quot;font-size: 20px;&quot;&gt;&lt;font style=&quot;font-size: 20px;&quot;&gt;&lt;span style=&quot;&quot;&gt;&#9;&lt;/span&gt;&lt;span style=&quot;&quot;&gt;&#9;&lt;/span&gt;&lt;span style=&quot;&quot;&gt;&#9;&lt;/span&gt;teamData&lt;/font&gt;&lt;/font&gt;&lt;/font&gt;&lt;/p&gt;&lt;p style=&quot;margin: 0px 0px 0px 40px; border: none; padding: 0px; line-height: 100%; font-size: 20px;&quot;&gt;&lt;font style=&quot;font-size: 20px;&quot;&gt;&lt;font style=&quot;font-size: 20px;&quot;&gt;&lt;font style=&quot;font-size: 20px;&quot;&gt;&lt;br&gt;&lt;/font&gt;&lt;/font&gt;&lt;font style=&quot;font-size: 20px;&quot;&gt;&lt;font style=&quot;font-size: 20px;&quot;&gt;&lt;span style=&quot;&quot;&gt;&#9;&lt;/span&gt;5) Question Card&lt;/font&gt;&lt;/font&gt;&lt;/font&gt;&lt;/p&gt;&lt;p style=&quot;margin: 0px 0px 0px 40px; border: none; padding: 0px; line-height: 100%; font-size: 20px;&quot;&gt;&lt;font style=&quot;font-size: 20px;&quot;&gt;&lt;span style=&quot;&quot;&gt;&#9;&lt;/span&gt;&lt;span style=&quot;&quot;&gt;&#9;&lt;/span&gt;State:&amp;nbsp;&lt;/font&gt;&lt;/p&gt;&lt;p style=&quot;margin: 0px 0px 0px 40px; border: none; padding: 0px; line-height: 100%; font-size: 20px;&quot;&gt;&lt;font style=&quot;font-size: 20px;&quot;&gt;&lt;span style=&quot;&quot;&gt;&#9;&lt;/span&gt;&lt;span style=&quot;&quot;&gt;&#9;&lt;span style=&quot;&quot;&gt;&#9;&lt;/span&gt;&lt;/span&gt;winStatus&lt;/font&gt;&lt;/p&gt;&lt;p style=&quot;margin: 0px 0px 0px 40px; border: none; padding: 0px; line-height: 100%; font-size: 20px;&quot;&gt;&lt;font style=&quot;font-size: 20px;&quot;&gt;&lt;span style=&quot;&quot;&gt;&#9;&lt;/span&gt;&lt;span style=&quot;&quot;&gt;&#9;&lt;/span&gt;&lt;span style=&quot;&quot;&gt;&#9;&lt;/span&gt;&lt;font color=&quot;#66ffff&quot;&gt;answerIsCorrect&lt;/font&gt;&lt;br&gt;&lt;/font&gt;&lt;/p&gt;&lt;p style=&quot;margin: 0px 0px 0px 40px; border: none; padding: 0px; line-height: 100%; font-size: 20px;&quot;&gt;&lt;font style=&quot;font-size: 20px;&quot;&gt;&lt;br&gt;&lt;/font&gt;&lt;/p&gt;&lt;p style=&quot;margin: 0px 0px 0px 40px; border: none; padding: 0px; line-height: 100%; font-size: 20px;&quot;&gt;&lt;span style=&quot;background-color: initial;&quot;&gt;&lt;font style=&quot;font-size: 20px;&quot;&gt;&lt;span style=&quot;&quot;&gt;&#9;&lt;/span&gt;&lt;span style=&quot;&quot;&gt;&#9;&lt;/span&gt;Handlers:&lt;/font&gt;&lt;/span&gt;&lt;/p&gt;&lt;p style=&quot;margin: 0px 0px 0px 40px; border: none; padding: 0px; line-height: 100%; font-size: 20px;&quot;&gt;&lt;span style=&quot;background-color: initial;&quot;&gt;&lt;font style=&quot;font-size: 20px;&quot;&gt;&lt;span style=&quot;&quot;&gt;&#9;&lt;/span&gt;&lt;span style=&quot;&quot;&gt;&#9;&lt;/span&gt;&lt;span style=&quot;&quot;&gt;&#9;&lt;/span&gt;submitAnswerHandler - &lt;/font&gt;&lt;/span&gt;&lt;/p&gt;&lt;p style=&quot;margin: 0px 0px 0px 40px; border: none; padding: 0px; line-height: 100%; font-size: 20px;&quot;&gt;&lt;font style=&quot;font-size: 20px;&quot;&gt;&lt;span style=&quot;background-color: initial;&quot;&gt;&lt;span style=&quot;&quot;&gt;&#9;&lt;/span&gt;&lt;span style=&quot;&quot;&gt;&#9;&lt;/span&gt;&lt;span style=&quot;&quot;&gt;&#9;&lt;/span&gt;&lt;span style=&quot;&quot;&gt;&#9;&lt;/span&gt;&lt;font color=&quot;#66ffff&quot;&gt;setAnswerIsCorrect&lt;/font&gt;&#9;&lt;/span&gt;&lt;span style=&quot;background-color: initial;&quot;&gt;&#9;&lt;/span&gt;&lt;span style=&quot;background-color: initial;&quot;&gt;&#9;&lt;/span&gt;&lt;span style=&quot;background-color: initial;&quot;&gt;&#9;&lt;/span&gt;&lt;span style=&quot;background-color: initial;&quot;&gt;&#9;&lt;/span&gt;&lt;/font&gt;&lt;/p&gt;&lt;p style=&quot;margin: 0px 0px 0px 40px; border: none; padding: 0px; line-height: 100%; font-size: 20px;&quot;&gt;&lt;font style=&quot;font-size: 20px;&quot;&gt;&lt;font style=&quot;font-size: 20px;&quot;&gt;&lt;font style=&quot;font-size: 20px;&quot;&gt;&lt;br&gt;&lt;/font&gt;&lt;/font&gt;&lt;font style=&quot;font-size: 20px;&quot;&gt;&lt;font style=&quot;font-size: 20px;&quot;&gt;&lt;span style=&quot;&quot;&gt;&#9;&lt;/span&gt;&lt;span style=&quot;&quot;&gt;&#9;&lt;/span&gt;Features:&lt;/font&gt;&lt;/font&gt;&lt;/font&gt;&lt;/p&gt;&lt;p style=&quot;margin: 0px 0px 0px 40px; border: none; padding: 0px; line-height: 100%; font-size: 20px;&quot;&gt;&lt;font style=&quot;font-size: 20px;&quot;&gt;&lt;font style=&quot;font-size: 20px;&quot;&gt;&lt;font style=&quot;font-size: 20px;&quot;&gt;&lt;span style=&quot;&quot;&gt;&#9;&lt;/span&gt;&lt;span style=&quot;&quot;&gt;&#9;&lt;/span&gt;&lt;span style=&quot;&quot;&gt;&#9;&lt;/span&gt;currentQuestion&lt;br&gt;&lt;/font&gt;&lt;/font&gt;&lt;font style=&quot;font-size: 20px;&quot;&gt;&lt;font style=&quot;font-size: 20px;&quot;&gt;&lt;span style=&quot;&quot;&gt;&#9;&lt;/span&gt;&lt;span style=&quot;&quot;&gt;&#9;&lt;/span&gt;&lt;span style=&quot;&quot;&gt;&#9;&lt;/span&gt;answerInput&amp;nbsp;&lt;br&gt;&lt;/font&gt;&lt;/font&gt;&lt;font style=&quot;font-size: 20px;&quot;&gt;&lt;font style=&quot;font-size: 20px;&quot;&gt;&lt;span style=&quot;&quot;&gt;&#9;&lt;/span&gt;&lt;span style=&quot;&quot;&gt;&#9;&lt;/span&gt;&lt;span style=&quot;&quot;&gt;&#9;&lt;/span&gt;submitAnswerButton -&amp;nbsp;&lt;/font&gt;&lt;/font&gt;&lt;/font&gt;&lt;/p&gt;&lt;span style=&quot;color: rgb(102, 255, 255); font-size: 20px;&quot;&gt;Instead of a submit answer button, I'd like for the click event to be on the answer. The answers can light up on hover, and &quot;submit&quot; the answer when clicked.&lt;/span&gt;&lt;p style=&quot;margin: 0px 0px 0px 40px; border: none; padding: 0px; line-height: 100%; font-size: 20px;&quot;&gt;&lt;font style=&quot;font-size: 20px;&quot;&gt;&lt;br&gt;&lt;/font&gt;&lt;/p&gt;&lt;p style=&quot;margin: 0px 0px 0px 40px; border: none; padding: 0px; line-height: 100%; font-size: 20px;&quot;&gt;&lt;font style=&quot;font-size: 20px;&quot;&gt;&lt;span style=&quot;&quot;&gt;&#9;&lt;/span&gt;&lt;span style=&quot;&quot;&gt;&#9;&lt;/span&gt;Props to Pass:&lt;/font&gt;&lt;/p&gt;&lt;p style=&quot;margin: 0px 0px 0px 40px; border: none; padding: 0px; line-height: 100%; font-size: 20px;&quot;&gt;&lt;font style=&quot;font-size: 20px;&quot;&gt;&lt;span style=&quot;&quot;&gt;&#9;&lt;/span&gt;&lt;span style=&quot;&quot;&gt;&#9;&lt;/span&gt;&lt;span style=&quot;&quot;&gt;&#9;&lt;/span&gt;&lt;span style=&quot;&quot;&gt;&#9;&lt;/span&gt;teamData - Game Play, Response Card&lt;br&gt;&lt;/font&gt;&lt;/p&gt;&lt;p style=&quot;margin: 0px 0px 0px 40px; border: none; padding: 0px; line-height: 100%; font-size: 20px;&quot;&gt;&lt;font style=&quot;font-size: 20px;&quot;&gt;&lt;span style=&quot;&quot;&gt;&#9;&lt;/span&gt;&lt;span style=&quot;&quot;&gt;&#9;&lt;/span&gt;&lt;span style=&quot;&quot;&gt;&#9;&lt;/span&gt;&lt;span style=&quot;&quot;&gt;&#9;&lt;/span&gt;answeredQuestion - Game Play, Response Card&lt;/font&gt;&lt;/p&gt;&lt;p style=&quot;margin: 0px 0px 0px 40px; border: none; padding: 0px; line-height: 100%; font-size: 20px;&quot;&gt;&lt;font style=&quot;font-size: 20px;&quot;&gt;&lt;span style=&quot;&quot;&gt;&#9;&lt;/span&gt;&lt;br&gt;&lt;/font&gt;&lt;/p&gt;&lt;p style=&quot;margin: 0px 0px 0px 40px; border: none; padding: 0px; line-height: 100%; font-size: 20px;&quot;&gt;&lt;font style=&quot;font-size: 20px;&quot;&gt;&lt;br&gt;&lt;/font&gt;&lt;/p&gt;&lt;p style=&quot;margin: 0px 0px 0px 40px; border: none; padding: 0px; line-height: 100%; font-size: 20px;&quot;&gt;&lt;font style=&quot;font-size: 20px;&quot;&gt;&lt;span style=&quot;&quot;&gt;&#9;&lt;/span&gt;6) Response Card&amp;nbsp;&lt;/font&gt;&lt;/p&gt;&lt;p style=&quot;margin: 0px 0px 0px 40px; border: none; padding: 0px; line-height: 100%; font-size: 20px;&quot;&gt;&lt;font style=&quot;font-size: 20px;&quot;&gt;&lt;span style=&quot;&quot;&gt;&#9;&lt;/span&gt;&lt;span style=&quot;&quot;&gt;&#9;&lt;/span&gt;&lt;/font&gt;&lt;/p&gt;&lt;p style=&quot;margin: 0px 0px 0px 40px; border: none; padding: 0px; line-height: 100%; font-size: 20px;&quot;&gt;&lt;font style=&quot;font-size: 20px;&quot;&gt;&lt;span style=&quot;&quot;&gt;&#9;&lt;/span&gt;&lt;span style=&quot;&quot;&gt;&#9;&lt;/span&gt;&lt;span style=&quot;&quot;&gt;&#9;&lt;/span&gt;answer=&quot;&lt;span style=&quot;background-color: initial;&quot;&gt;correct ? Correct!&amp;nbsp; : Incorrect - answeredQuestion(`$[answeredQuestion.answer]`)&lt;/span&gt;&lt;/font&gt;&lt;/p&gt;&lt;p style=&quot;margin: 0px 0px 0px 40px; border: none; padding: 0px; line-height: 100%; font-size: 20px;&quot;&gt;&lt;font style=&quot;font-size: 20px;&quot;&gt;&lt;span style=&quot;&quot;&gt;&#9;&lt;/span&gt;&lt;span style=&quot;&quot;&gt;&#9;&lt;/span&gt;&lt;span style=&quot;&quot;&gt;&#9;&lt;/span&gt;&lt;/font&gt;&lt;/p&gt;&lt;p style=&quot;margin: 0px 0px 0px 40px; border: none; padding: 0px; line-height: 100%; font-size: 20px;&quot;&gt;&lt;font style=&quot;font-size: 20px;&quot;&gt;&lt;span style=&quot;&quot;&gt;&#9;&lt;/span&gt;&lt;span style=&quot;&quot;&gt;&#9;&lt;/span&gt;Features&lt;/font&gt;&lt;/p&gt;&lt;p style=&quot;margin: 0px 0px 0px 40px; border: none; padding: 0px; line-height: 100%; font-size: 20px;&quot;&gt;&lt;font style=&quot;font-size: 20px;&quot;&gt;&lt;span style=&quot;&quot;&gt;&#9;&lt;/span&gt;&lt;span style=&quot;&quot;&gt;&#9;&lt;/span&gt;&lt;span style=&quot;&quot;&gt;&#9;&lt;/span&gt;nextQuestionButton - &lt;font color=&quot;#66ffff&quot;&gt;What if, instead, it automatically continued after a set number of seconds?&lt;/font&gt;&lt;br&gt;&lt;/font&gt;&lt;/p&gt;&lt;p style=&quot;margin: 0px 0px 0px 40px; border: none; padding: 0px; line-height: 100%; font-size: 20px;&quot;&gt;&lt;font style=&quot;font-size: 20px;&quot;&gt;&lt;span style=&quot;&quot;&gt;&#9;&lt;/span&gt;&lt;span style=&quot;&quot;&gt;&#9;&lt;/span&gt;&lt;span style=&quot;&quot;&gt;&lt;span style=&quot;&quot;&gt;&#9;&lt;/span&gt;&lt;span style=&quot;&quot;&gt;&#9;&lt;/span&gt;Props to Pass&#9;&lt;/span&gt;&lt;span style=&quot;&quot;&gt;&#9;&lt;/span&gt;&lt;/font&gt;&lt;/p&gt;&lt;p style=&quot;margin: 0px 0px 0px 40px; border: none; padding: 0px; line-height: 100%; font-size: 20px;&quot;&gt;&lt;font style=&quot;font-size: 20px;&quot;&gt;&lt;span style=&quot;&quot;&gt;&#9;&lt;/span&gt;&lt;span style=&quot;&quot;&gt;&#9;&lt;/span&gt;&lt;span style=&quot;&quot;&gt;&#9;&lt;/span&gt;answeredQuestion - Game Play, App&lt;br&gt;&lt;/font&gt;&lt;/p&gt;&lt;p style=&quot;margin: 0px 0px 0px 40px; border: none; padding: 0px; line-height: 100%; font-size: 20px;&quot;&gt;&lt;font style=&quot;font-size: 20px;&quot;&gt;&lt;span style=&quot;&quot;&gt;&#9;&lt;/span&gt;&lt;span style=&quot;&quot;&gt;&#9;&lt;/span&gt;&lt;span style=&quot;&quot;&gt;&#9;&lt;/span&gt;&lt;span style=&quot;&quot;&gt;&#9;&lt;/span&gt;&lt;span style=&quot;&quot;&gt;&#9;&lt;/span&gt;teamData - Game Play, App&lt;br&gt;&lt;/font&gt;&lt;/p&gt;&lt;p style=&quot;margin: 0px 0px 0px 40px; border: none; padding: 0px; line-height: 100%; font-size: 20px;&quot;&gt;&lt;font style=&quot;font-size: 20px;&quot;&gt;&lt;span style=&quot;&quot;&gt;&#9;&lt;/span&gt;&lt;br&gt;&lt;/font&gt;&lt;/p&gt;&lt;p style=&quot;margin: 0px 0px 0px 40px; border: none; padding: 0px; line-height: 100%; font-size: 20px;&quot;&gt;&lt;font style=&quot;font-size: 20px;&quot;&gt;&lt;span style=&quot;&quot;&gt;&#9;&lt;/span&gt;&lt;br&gt;&lt;/font&gt;&lt;/p&gt;&lt;p style=&quot;margin: 0px 0px 0px 40px; border: none; padding: 0px; line-height: 100%; font-size: 20px;&quot;&gt;&lt;font style=&quot;font-size: 20px;&quot;&gt;&lt;br&gt;&lt;/font&gt;&lt;/p&gt;&lt;font style=&quot;font-size: 20px;&quot;&gt;&#9;&#9;&#9;&#9;&lt;br&gt;&lt;/font&gt;&lt;span style=&quot;font-size: 35px;&quot;&gt;&#9;&lt;/span&gt;" style="text;strokeColor=none;fillColor=none;align=left;verticalAlign=top;spacingLeft=4;spacingRight=4;overflow=hidden;rotatable=0;points=[[0,0.5],[1,0.5]];portConstraint=eastwest;html=1;fontSize=36;" parent="1" vertex="1">
                    <mxGeometry x="-4000" y="390" width="1080" height="1400" as="geometry"/>
                </mxCell>
                <mxCell id="59" value="LandingPage" style="swimlane;container=0;fontSize=22;shadow=1;strokeWidth=3;" parent="1" vertex="1">
                    <mxGeometry x="-4949.997940966742" y="-2264.067777777778" width="1386.10068284806" height="1184.7837733333333" as="geometry"/>
                </mxCell>
                <mxCell id="85" value="&lt;font style=&quot;font-size: 30px;&quot;&gt;Header&lt;/font&gt;" style="rounded=0;whiteSpace=wrap;html=1;" parent="1" vertex="1">
                    <mxGeometry x="-3516.10068284806" y="-947.4926622222224" width="1386.10068284806" height="228.85044" as="geometry"/>
                </mxCell>
                <mxCell id="86" value="Answer Response Page" style="swimlane;container=0;fontSize=25;strokeWidth=3;" parent="1" vertex="1">
                    <mxGeometry x="-3516.1027418813173" y="-1021.3544444444444" width="1386.10068284806" height="1178.9844444444445" as="geometry"/>
                </mxCell>
                <mxCell id="63" value="Game Play Page" style="swimlane;container=0;fontSize=25;strokeWidth=3;" parent="1" vertex="1">
                    <mxGeometry x="-4950" y="-1021.3544444444444" width="1386.10068284806" height="1178.9844444444445" as="geometry"/>
                </mxCell>
                <mxCell id="68" value="&lt;font style=&quot;font-size: 38px;&quot;&gt;Header&lt;/font&gt;" style="rounded=0;whiteSpace=wrap;html=1;" parent="1" vertex="1">
                    <mxGeometry x="-4949.997940966742" y="-947.4926622222224" width="1386.10068284806" height="228.85044" as="geometry"/>
                </mxCell>
                <mxCell id="66" value="Teams Card" style="rounded=0;whiteSpace=wrap;html=1;fontSize=24;" parent="1" vertex="1">
                    <mxGeometry x="-4870.339041215629" y="-639.9811111111111" width="1210.8465735224431" height="127.45777777777778" as="geometry"/>
                </mxCell>
                <mxCell id="71" value="&lt;font style=&quot;font-size: 24px;&quot;&gt;Question Card&lt;/font&gt;" style="swimlane;fontStyle=0;childLayout=stackLayout;horizontal=1;startSize=26;fillColor=none;horizontalStack=0;resizeParent=1;resizeParentMax=0;resizeLast=0;collapsible=1;marginBottom=0;html=1;" parent="1" vertex="1">
                    <mxGeometry x="-4753.237431802603" y="-463.7266666666666" width="992.5755464532659" height="462.54288888888885" as="geometry"/>
                </mxCell>
                <mxCell id="72" value="&lt;font style=&quot;font-size: 36px;&quot;&gt;Question&lt;/font&gt;" style="text;strokeColor=none;fillColor=none;align=center;verticalAlign=top;spacingLeft=4;spacingRight=4;overflow=hidden;rotatable=0;points=[[0,0.5],[1,0.5]];portConstraint=eastwest;whiteSpace=wrap;html=1;" parent="71" vertex="1">
                    <mxGeometry y="26" width="992.5755464532659" height="117.89844444444445" as="geometry"/>
                </mxCell>
                <mxCell id="73" value="&lt;font style=&quot;font-size: 24px;&quot;&gt;Answer A&lt;/font&gt;" style="text;strokeColor=none;fillColor=none;align=left;verticalAlign=top;spacingLeft=4;spacingRight=4;overflow=hidden;rotatable=0;points=[[0,0.5],[1,0.5]];portConstraint=eastwest;whiteSpace=wrap;html=1;" parent="71" vertex="1">
                    <mxGeometry y="143.89844444444446" width="992.5755464532659" height="79.66111111111111" as="geometry"/>
                </mxCell>
                <mxCell id="74" value="&lt;font style=&quot;font-size: 24px;&quot;&gt;Answer B&lt;/font&gt;" style="text;strokeColor=none;fillColor=none;align=left;verticalAlign=top;spacingLeft=4;spacingRight=4;overflow=hidden;rotatable=0;points=[[0,0.5],[1,0.5]];portConstraint=eastwest;whiteSpace=wrap;html=1;" parent="71" vertex="1">
                    <mxGeometry y="223.55955555555556" width="992.5755464532659" height="79.66111111111111" as="geometry"/>
                </mxCell>
                <mxCell id="77" value="&lt;font style=&quot;font-size: 24px;&quot;&gt;Answer C&lt;/font&gt;" style="text;strokeColor=none;fillColor=none;align=left;verticalAlign=top;spacingLeft=4;spacingRight=4;overflow=hidden;rotatable=0;points=[[0,0.5],[1,0.5]];portConstraint=eastwest;whiteSpace=wrap;html=1;" parent="71" vertex="1">
                    <mxGeometry y="303.22066666666666" width="992.5755464532659" height="79.66111111111111" as="geometry"/>
                </mxCell>
                <mxCell id="76" value="&lt;font style=&quot;font-size: 24px;&quot;&gt;Answer D&lt;/font&gt;" style="text;strokeColor=none;fillColor=none;align=left;verticalAlign=top;spacingLeft=4;spacingRight=4;overflow=hidden;rotatable=0;points=[[0,0.5],[1,0.5]];portConstraint=eastwest;whiteSpace=wrap;html=1;" parent="71" vertex="1">
                    <mxGeometry y="382.88177777777776" width="992.5755464532659" height="79.66111111111111" as="geometry"/>
                </mxCell>
                <mxCell id="53" value="Game Setup Page" style="swimlane;container=0;fontSize=25;strokeWidth=3;" parent="1" vertex="1">
                    <mxGeometry x="-3516.10068284806" y="-2280" width="1386.10068284806" height="1184.7837733333333" as="geometry"/>
                </mxCell>
                <mxCell id="54" value="&lt;font style=&quot;font-size: 34px;&quot;&gt;Header&lt;/font&gt;" style="rounded=0;whiteSpace=wrap;html=1;" parent="1" vertex="1">
                    <mxGeometry x="-3516.10068284806" y="-2206.1382177777778" width="1386.10068284806" height="228.85044" as="geometry"/>
                </mxCell>
                <mxCell id="95" value="Answer Response" style="swimlane;fontSize=24;fontStyle=0" parent="1" vertex="1">
                    <mxGeometry x="-3468.3061666106946" y="-670.8455555555555" width="621.3554785180959" height="457.2547777777778" as="geometry"/>
                </mxCell>
                <mxCell id="99" value="" style="group" parent="95" vertex="1" connectable="0">
                    <mxGeometry x="175.2541093256168" y="90.81366666666668" width="278.8133557452995" height="323.42411111111113" as="geometry"/>
                </mxCell>
                <mxCell id="96" value="Correct" style="text;html=1;strokeColor=none;fillColor=none;align=center;verticalAlign=middle;whiteSpace=wrap;rounded=0;fontSize=24;" parent="99" vertex="1">
                    <mxGeometry x="91.61010260202697" width="95.59315054124554" height="47.79666666666667" as="geometry"/>
                </mxCell>
                <mxCell id="97" value="Next Team's Question" style="rounded=1;whiteSpace=wrap;html=1;fontSize=24;" parent="99" vertex="1">
                    <mxGeometry y="175.25444444444446" width="278.8133557452995" height="148.16966666666667" as="geometry"/>
                </mxCell>
                <mxCell id="100" value="Answer Response" style="swimlane;fontSize=24;fontStyle=0" parent="1" vertex="1">
                    <mxGeometry x="-2815.08630457885" y="-670.8455555555555" width="621.3554785180959" height="457.2547777777778" as="geometry"/>
                </mxCell>
                <mxCell id="101" value="" style="group" parent="100" vertex="1" connectable="0">
                    <mxGeometry x="175.2541093256168" y="90.81366666666668" width="366.4404104081078" height="323.42411111111113" as="geometry"/>
                </mxCell>
                <mxCell id="102" value="Incorrect&lt;br&gt;The correct answer:" style="text;html=1;strokeColor=none;fillColor=none;align=center;verticalAlign=middle;whiteSpace=wrap;rounded=0;fontSize=24;" parent="101" vertex="1">
                    <mxGeometry x="-95.5931505412455" width="462.03356094935333" height="127.45777777777778" as="geometry"/>
                </mxCell>
                <mxCell id="103" value="Next Team's Question" style="rounded=1;whiteSpace=wrap;html=1;fontSize=24;" parent="101" vertex="1">
                    <mxGeometry y="175.25444444444446" width="278.8133557452994" height="148.16966666666667" as="geometry"/>
                </mxCell>
                <mxCell id="104" value="Winning Conditions Met" style="swimlane;fontSize=24;fontStyle=0" parent="1" vertex="1">
                    <mxGeometry x="-3149.6623314732096" y="-192.8788888888888" width="653.2198620318443" height="207.1188888888889" as="geometry"/>
                </mxCell>
                <mxCell id="108" value="Congratulations!&lt;br&gt;$[team]&lt;br&gt;are the winners" style="text;html=1;strokeColor=none;fillColor=none;align=center;verticalAlign=middle;whiteSpace=wrap;rounded=0;fontSize=24;" parent="104" vertex="1">
                    <mxGeometry x="63.728767027497" y="111.52555555555556" width="525.7623279768502" height="47.79666666666667" as="geometry"/>
                </mxCell>
                <mxCell id="109" value="Play Again?" style="rounded=1;whiteSpace=wrap;html=1;fontSize=24;" parent="1" vertex="1">
                    <mxGeometry x="-3038.1369891750896" y="30.172222222222217" width="430.1691774356048" height="95.59333333333333" as="geometry"/>
                </mxCell>
                <mxCell id="25" value="&lt;font style=&quot;font-size: 30px;&quot;&gt;Enter Team Names form:&lt;/font&gt;" style="rounded=0;whiteSpace=wrap;html=1;fontSize=24;" parent="1" vertex="1">
                    <mxGeometry x="-3436.4397240636886" y="-1849.83" width="1178.9821900086947" height="270.8477777777778" as="geometry"/>
                </mxCell>
                <mxCell id="28" value="&lt;font style=&quot;font-size: 28px;&quot;&gt;Start Game Button&lt;/font&gt;" style="whiteSpace=wrap;html=1;aspect=fixed;fontSize=24;" parent="1" vertex="1">
                    <mxGeometry x="-2950.507875479024" y="-1563.05" width="254.91506810998803" height="254.91506810998803" as="geometry"/>
                </mxCell>
                <mxCell id="122" value="Submit" style="rounded=1;fillColor=#0057D8;align=center;strokeColor=none;html=1;fontColor=#ffffff;fontSize=12;sketch=0;" parent="1" vertex="1">
                    <mxGeometry x="-3006.270546628084" y="-1658.6433333333334" width="278.8133557452994" height="63.72888888888889" as="geometry"/>
                </mxCell>
                <mxCell id="60" value="&lt;font style=&quot;font-size: 33px;&quot;&gt;Header&lt;/font&gt;" style="rounded=0;whiteSpace=wrap;html=1;shadow=1;" parent="1" vertex="1">
                    <mxGeometry x="-4949.997940966742" y="-2190.2059955555555" width="1386.10068284806" height="228.85044" as="geometry"/>
                </mxCell>
                <mxCell id="61" value="&lt;font style=&quot;font-size: 22px;&quot;&gt;NEW GAME BUTTON&lt;/font&gt;" style="rounded=0;whiteSpace=wrap;html=1;strokeColor=#000000;" parent="1" vertex="1">
                    <mxGeometry x="-4498.838100891455" y="-1833.8977777777777" width="476.515923256352" height="154.97272555555557" as="geometry"/>
                </mxCell>
                <mxCell id="62" value="High Scores" style="swimlane;fontSize=19;shadow=0;perimeterSpacing=0;" parent="1" vertex="1">
                    <mxGeometry x="-4604.922599704602" y="-1594.9144444444444" width="690.1506825242789" height="318.64444444444445" as="geometry"/>
                </mxCell>
            </root>
        </mxGraphModel>
    </diagram>
</mxfile>